<svg xmlns="http://www.w3.org/2000/svg" xmlns:xlink="http://www.w3.org/1999/xlink" viewBox="0 0 206.614 249.053">
  <defs>
    <style>
      .cls-1 {
        fill: #195597;
      }

      .cls-2 {
        fill: #e7eced;
      }

      .cls-3 {
        filter: url(#Path_244);
      }
    </style>
    <filter id="Path_244" x="0" y="0" width="206.614" height="249.053" filterUnits="userSpaceOnUse">
      <feOffset dy="3" input="SourceAlpha"/>
      <feGaussianBlur stdDeviation="12.5" result="blur"/>
      <feFlood flood-opacity="0.502"/>
      <feComposite operator="in" in2="blur"/>
      <feComposite in="SourceGraphic"/>
    </filter>
  </defs>
  <g id="Group_48" data-name="Group 48" transform="translate(-2875.005 -2196.072)">
    <rect id="Rectangle_529" data-name="Rectangle 529" class="cls-1" width="205" height="205" rx="10" transform="translate(2876 2215)"/>
    <g class="cls-3" transform="matrix(1, 0, 0, 1, 2875.01, 2196.07)">
      <path id="Path_244-2" data-name="Path 244" class="cls-2" d="M49.737,141.85,19.153,158.532a27.485,27.485,0,0,0-4.908,3.493,102.435,102.435,0,0,0,131.614.34,27.133,27.133,0,0,0-5.392-3.613l-32.75-16.373a12.489,12.489,0,0,1-6.9-11.171V118.36a49.465,49.465,0,0,0,3.1-3.984,75.357,75.357,0,0,0,10.18-20.516,10.286,10.286,0,0,0,7.295-9.786V70.359a10.239,10.239,0,0,0-3.427-7.6V42.931s4.073-30.854-37.712-30.854S42.535,42.931,42.535,42.931V62.758a10.225,10.225,0,0,0-3.427,7.6V84.075A10.283,10.283,0,0,0,43.85,92.7a68.063,68.063,0,0,0,12.4,25.656v12.532A12.5,12.5,0,0,1,49.737,141.85Z" transform="translate(23.26 22.42)"/>
    </g>
  </g>
</svg>
