<svg xmlns="http://www.w3.org/2000/svg" viewBox="3496 1865.404 867.481 492.331"><defs><style>.b{fill:#848484}.d{fill:#b7b7b7}.e{fill:#f9d6b7}.f{fill:#231f20}.g{fill:#cececf}.i{fill:#fff}.j{fill:#43d6cb}.k{fill:#ff508f}.l{fill:#bababe}.n{fill:#e8e8e8}.q{fill:#fcfcfc}.r{fill:#4aa3b1}.s{fill:#def9ff}.ac{fill:#e5e5e5}.ad{fill:#cecece}.ae{fill:#7763aa}</style></defs><g transform="translate(3496 1927.473)"><path d="M867.482 316.628H0v-68.644h781.986z" fill="#d9d9da"/><ellipse class="b" cx="241.646" cy="4.638" rx="241.646" ry="4.638" transform="translate(73.128 292.201)"/><ellipse class="b" cx="44.99" cy="2.783" rx="44.99" ry="2.783" transform="translate(606.665 294.056)"/><path fill="#9721d6" d="M658.502 145.05l10.665 1.836-15.06 87.456-10.664-1.836z"/><path class="d" d="M663.872 145.979l5.333.918-15.06 87.456-5.332-.918z"/><path class="e" d="M643.461 232.524l3.092 14.533 7.576-12.677.618-3.556-2.628 3.247-2.628-4.174-3.711 3.092-1.7-4.02z"/><path class="f" d="M646.553 247.057l3.247-5.411-2.319-.464a11.932 11.932 0 0 0-2.319-.309z"/><g transform="translate(639.441 132.959)"><ellipse class="g" cx="1.082" cy="1.082" rx="1.082" ry="1.082" transform="translate(5.72 133.268)"/><path class="f" d="M1.391 11.286h10.822v108.841H1.391z"/><path class="f" d="M13.451 54.111H0v-50.4A3.762 3.762 0 0 1 3.71 0h6.03a3.762 3.762 0 0 1 3.711 3.711v50.4z"/><path class="d" d="M1.391 54.111h10.822v1.546H1.391z"/><path class="f" d="M13.451 7.576v1.546h2.01v36.487a1.312 1.312 0 0 0-1.082 1.237v4.793a1.386 1.386 0 0 0 1.391 1.391h1.237V7.576z"/><path fill="#3a3436" d="M1.391 120.127h10.822v4.174H1.391z"/><path class="f" d="M7.73 134.35l4.483-10.049H1.391L5.72 134.35z"/></g><g transform="translate(648.872 138.525)"><ellipse class="i" cx="1.082" cy="1.082" rx="1.082" ry="1.082" transform="translate(54.111)"/><path class="j" d="M15.728 117.879l-10.092-3.908L44.94 12.474l10.092 3.908z"/><path class="j" d="M19.944 73.437l12.523 4.793-18.243 47a3.853 3.853 0 0 1-4.793 2.164l-5.72-2.164a3.853 3.853 0 0 1-2.164-4.793z"/><path class="d" d="M31.314 77.972l-10.092-3.908.558-1.442 10.092 3.908z"/><path class="j" d="M3.247 116.882l.618-1.391-1.855-.773 13.141-34.013a1.106 1.106 0 0 0 1.391-.773l1.7-4.484a1.169 1.169 0 0 0-.773-1.7l-1.081-.466-.773 2.164-1.855 4.947L0 115.793z"/><path class="i" d="M55.071 16.293l-10.092-3.908 1.507-3.892L56.578 12.4z"/><path class="j" d="M54.112.773l-7.576 7.73 10.049 3.865-.464-10.822z"/></g><path class="k" d="M619.172 164.145l10.671-1.8 14.759 87.507-10.672 1.8z"/><path class="d" d="M624.39 163.251l5.336-.9 14.758 87.507-5.336.9z"/><path class="e" d="M633.875 251.695l7.576 12.678 3.092-14.533-.618-3.556-1.391 3.865-4.02-2.937-2.319 4.02-2.937-3.092z"/><path class="f" d="M641.45 264.373l1.238-6.184c-.773.155-1.546.155-2.319.309l-2.319.464z"/><path class="k" d="M671.937 168.834l10.768 1.125-9.23 88.3-10.767-1.126z"/><path class="d" d="M677.331 169.426l5.384.563-9.23 88.299-5.383-.563z"/><path class="e" d="M671.908 168.827l6.8-13.141 4.02 14.224-.464 3.71-1.546-3.865-3.71 3.247-2.783-3.865-2.626 3.249z"/><path class="f" d="M678.71 155.686l1.7 6.03c-.773 0-1.546-.155-2.319-.155-.773-.155-1.546-.155-2.319-.309z"/><path class="g" d="M314.308 281.997h-245.2c0 5.411 6.03 10.049 14.378 10.977l12.987 1.391a372.86 372.86 0 0 0 41.588 2.319h352.806a372.859 372.859 0 0 0 41.588-2.319l12.987-1.391c8.349-.928 14.378-5.566 14.378-10.977H314.308z"/><path class="i" d="M97.555 261.28V22.881A23.029 23.029 0 0 1 120.436 0h387.592a22.929 22.929 0 0 1 22.881 22.881v238.4z"/><path class="f" d="M505.864 2.783H122.756a22.434 22.434 0 0 0-22.418 22.418v233.3h427.943v-233.3a22.434 22.434 0 0 0-22.417-22.418z"/><path class="g" d="M528.281 258.497H100.338l-31.23 23.5h490.4z"/><path class="d" d="M314.308 281.997h-245.2c0 5.411 6.03 10.049 14.378 10.977l12.987 1.391a372.86 372.86 0 0 0 41.588 2.319h352.806a372.859 372.859 0 0 0 41.588-2.319l12.987-1.391c8.349-.928 14.378-5.566 14.378-10.977H314.308z"/><path class="i" d="M72.508 288.645h483.756a8.816 8.816 0 0 0 3.4-6.648H69.108a8.816 8.816 0 0 0 3.4 6.648z"/><path class="f" d="M206.705 269.629h16.7l3.247-6.957H210.57zm-18.243 0h16.7l3.865-6.957H193.1zm108.686-6.957h-16.233l-1.237 6.957h16.852zm-72.2 6.957h16.7l2.628-6.957h-16.081zm18.244 0h16.7l2.01-6.957H245.82zm36.332-6.957H263.29l-1.855 6.957h16.852zm-127.549 6.957h16.543l5.257-6.957H157.85zm-36.332 0h16.233l6.493-6.957h-15.614zm54.576 0h16.543l4.638-6.957h-15.924zm-63.233 8.192h17.161l6.493-6.8h-16.388zm190.935-8.192h16.852v-6.957h-16.234zm-164.034 0h16.388l5.72-6.957H140.38zm255.096 0h16.7l-3.247-6.957h-16.081zm54.885 0h16.543l-5.257-6.957h-15.77zm18.24 0h16.543l-5.873-6.957h-15.77zm18.4 0h16.388l-6.493-6.957h-15.77zm-54.884 0h16.543l-4.484-6.957h-16.079zm89.515 0l-7.266-6.957h-15.615l6.493 6.957zm-180.886 0h16.852l-1.391-6.957H333.48zm18.243 0h16.852l-2.01-6.957h-16.233zm-36.331 0h16.543l-.618-6.957h-15.925zm54.575 0h16.7l-2.474-6.957H368.73zm36.486 0h16.7l-3.865-6.957h-16.082zm-258.188 1.392h-16.543l-6.493 6.8h17.161zm349.095 0H481.59l5.875 6.8h17.161zm-55.036 0h-16.7l3.865 6.8h17.47zm18.398 0h-16.7l4.483 6.8h17.317zm-36.796 0h-16.7l3.247 6.8h17.47zm-18.246 0h-17.006l2.628 6.8H409.7zm73.283 0h-16.543l5.256 6.8h17.161zm58.13-.155v.155h-19.325l7.112 6.8h21.488zm-424.233-1.237l7.112-6.957h-19.016l-9.122 6.957zm-1.391 1.392h-21.49l-9.276 6.8h23.5zm275.813 0h-17.006l2.01 6.8h17.625zm128.476 0h-16.543l6.493 6.8h17.161zm.464-1.392h19.171l-9.276-6.957h-17.007zm-349.559 1.392h-16.543l-5.875 6.8h17.316zm73.747 0H224.33l-3.247 6.8h17.47zm-18.399 0h-16.852l-3.865 6.8h17.47zm36.795 0h-17.006l-2.474 6.8h17.47zm-55.193 0h-16.851l-4.484 6.8h17.316zm-18.552 0h-16.543l-5.257 6.8h17.316zm92.144 0h-17.007l-1.855 6.8h17.625zm73.281 0h-17.006l.773 6.8h17.627zm-18.394 0h-16.7v6.8h17.316zm-36.49 0h-17.006l-1.237 6.8h17.625zm73.282 0h-17.006l1.391 6.8h17.625zm-54.884 0h-17.007l-.618 6.8h17.625z"/><path class="l" d="M0 316.629h867.482v29.375H0z"/><path class="l" d="M0 346.003h759.878v84.259H0z"/><path fill="#9c9999" d="M0 346.003h759.878v16.388H0z"/><path class="n" d="M684.895 231.751h-66.48v49.473a15.572 15.572 0 0 0 15.615 15.615h35.25a15.572 15.572 0 0 0 15.615-15.615z"/><path class="n" d="M684.122 222.475h-65.088a4.093 4.093 0 0 0-4.02 4.02v1.237a4.093 4.093 0 0 0 4.02 4.02h65.088a4.093 4.093 0 0 0 4.02-4.02v-1.237a3.992 3.992 0 0 0-4.02-4.02z"/><path class="d" d="M618.415 231.751h66.48v3.865h-66.48z"/></g><g transform="translate(3612.673 1947.507)"><path fill="#6faeb7" d="M0 0h396.889v228.131H0z"/><path fill="#aad4e0" d="M0 0h396.911v19.235H0z"/><path class="q" d="M55.163 5.076h328.661v9.72H55.163z"/><ellipse class="q" cx="3.071" cy="3.136" rx="3.071" ry="3.136" transform="translate(5.183 7.565)"/><ellipse class="q" cx="3.071" cy="3.136" rx="3.071" ry="3.136" transform="translate(15.916 7.565)"/><ellipse class="q" cx="3.071" cy="3.136" rx="3.071" ry="3.136" transform="translate(41.413 6.811)"/><path class="r" d="M14.86 166.352h30.831v31.499H14.86zm-.398 40.852h369.297v10.377H14.462z"/><path class="s" d="M72.233 40.637h43.829v1.95H72.233zm0 7.134h81.929v1.95H72.233zm0 7.252h259.281v1.95H72.233zm0 7.78h174.139v1.95H72.233zm0 6.973h242.011v1.95H72.233zm0 7.78h81.929v1.95H72.233zm0 6.703h114.995v1.95H72.233zm0 7.532h39.76v1.95h-39.76zm0 8.298h121.019v1.95H72.233zm0 7.651h174.139v1.95H72.233zm0 7.662h81.929v1.95H72.233zm129.64 0h172.024v1.95H201.873zm51.112-7.662h58.394v1.95h-58.394zm-41.902-30.184h139.814v1.95H211.083zm-46.908-29.785h69.291v1.95h-69.291zm77.377 0h98.502v1.95h-98.502zM72.233 123.182h43.829v1.95H72.233zm0 7.134h81.929v1.95H72.233zm0 7.263h259.281v1.95H72.233zm0 7.77h174.139v1.95H72.233zm0 6.983h242.011v1.95H72.233zm0 7.769h81.929v1.95H72.233zm0 6.703h114.995v1.95H72.233zm0 7.533h39.76v1.95h-39.76zm0 8.297h121.019v1.95H72.233zm0 7.662h174.139v1.95H72.233zm0 7.651h81.929v1.95H72.233zm91.942-67.631h69.291v1.95h-69.291zm77.377 0h98.502v1.95h-98.502z"/><path class="r" d="M14.86 40.63h30.831v119.022H14.86z"/><path class="s" d="M21.413 66.545h17.641v1.95H21.413zm0 8.304h10.499v1.95H21.413zm0 8.304h14.651v2.117H21.413zm0 8.304h17.641v1.95H21.413zm0 8.304h9.835v1.95h-9.835zm0 8.304h13.489v1.95H21.413zm0 8.304h6.181v1.95h-6.181zm0 8.304h11.496v1.95H21.413zm0 8.304h3.856v1.95h-3.856zm0 8.303h15.315v1.95H21.413zm0 8.304h17.641v1.95H21.413z"/></g><path d="M3640.307 2005.256l-2.561 1.4a2.3 2.3 0 0 0-.411.292 8.578 8.578 0 0 0 11.02.028 2.272 2.272 0 0 0-.451-.3l-2.742-1.371a1.046 1.046 0 0 1-.578-.935v-1.081a4.141 4.141 0 0 0 .259-.334 6.31 6.31 0 0 0 .852-1.718.861.861 0 0 0 .611-.819v-1.148a.857.857 0 0 0-.287-.636v-1.66s.341-2.583-3.158-2.583-3.158 2.583-3.158 2.583v1.66a.856.856 0 0 0-.287.636v1.148a.861.861 0 0 0 .4.723 5.7 5.7 0 0 0 1.038 2.148v1.049a1.048 1.048 0 0 1-.547.918z" fill="#ecf0f1"/><path d="M3643.008 1991.8a8.577 8.577 0 0 0-5.669 15.143 2.28 2.28 0 0 1 .407-.288l2.561-1.4a1.046 1.046 0 0 0 .545-.918v-1.048a5.693 5.693 0 0 1-1.039-2.148.861.861 0 0 1-.4-.723v-1.148a.857.857 0 0 1 .287-.636v-1.661s-.338-2.583 3.161-2.583 3.158 2.583 3.158 2.583v1.66a.856.856 0 0 1 .287.636v1.149a.861.861 0 0 1-.611.819 6.31 6.31 0 0 1-.852 1.718 4.142 4.142 0 0 1-.259.334v1.076a1.045 1.045 0 0 0 .578.935l2.742 1.371a2.283 2.283 0 0 1 .45.3 8.58 8.58 0 0 0-5.346-15.171z" fill="#556080"/><path d="M3646.208 2007.503l-.646 2.367 1.5-1.5z" fill="#eddcc7"/><path d="M3652.443 2002.985l-.4-.4a.643.643 0 0 0-.909 0l-1.164 1.152.858.859z" fill="#d75a4a"/><path fill="#f29c21" d="M3649.97 2003.741l.858.858-3.76 3.762-.86-.859z"/><path d="M3648.038 2009.337l-.974-.974-1.5 1.5-.043.158z" fill="#d6c4b1"/><path d="M3651.802 2005.573l1.16-1.16a.643.643 0 0 0 0-.909l-.519-.519-1.615 1.615z" fill="#a34740"/><path fill="#e18c25" d="M3648.04 2009.335l-.974-.974 3.761-3.76.974.973z"/><path d="M3645.29 2010.577a.324.324 0 0 1-.229-.553l.715-.715a.324.324 0 0 1 .458.458l-.715.715a.323.323 0 0 1-.229.095z" fill="#5e5e5e"/><g transform="translate(3538.132 1865.404)"><path class="ac" d="M0 44.888C0 20.094 25.636 0 57.258 0s57.258 20.094 57.258 44.888c0 22.62-21.348 41.332-49.1 44.434L78.2 111.905l-24.486-22.22C23.746 88.243 0 68.743 0 44.888z"/><path class="ad" d="M78.2 111.899l-24.485-22.22s-16.81-.012-31.416-9.25C10.637 73.057.248 61.977 0 44.888c0 0 4.053 39.751 57.258 40.66z"/><path class="i" d="M65.908 85.021s32.991.315 43.731-34.069c0 0-15.756 26.624-43.731 34.069z"/><ellipse class="ae" cx="3.756" cy="3.756" rx="3.756" ry="3.756" transform="rotate(-76.714 62.395 -17.314)"/><circle class="ae" cx="3.756" cy="3.756" r="3.756" transform="rotate(-45 79.8 -40.408)"/><circle class="ae" cx="3.756" cy="3.756" r="3.756" transform="rotate(-45 73.718 -25.725)"/></g><g transform="translate(3930.281 1894.572)"><path class="ac" d="M181.079 70.984C181.079 31.776 140.544 0 90.54 0S0 31.776 0 70.984c0 35.759 33.761 65.346 77.648 70.245l-20.212 35.717 38.714-35.129c47.391-2.272 84.929-33.104 84.929-70.833z"/><path class="ad" d="M57.422 176.947l38.715-35.129s26.576-.014 49.676-14.629c18.447-11.66 34.869-29.176 35.253-56.2 0 0-6.418 62.855-90.54 64.292z"/><path class="i" d="M76.868 134.441s-52.167.492-69.15-53.878c0 0 24.907 42.109 69.15 53.878z"/><ellipse class="ae" cx="5.939" cy="5.939" rx="5.939" ry="5.939" transform="translate(65.373 64.566)"/><ellipse class="ae" cx="5.939" cy="5.939" rx="5.939" ry="5.939" transform="translate(84.6 64.566)"/><ellipse class="ae" cx="5.939" cy="5.939" rx="5.939" ry="5.939" transform="translate(103.841 64.566)"/></g></svg>