<svg xmlns="http://www.w3.org/2000/svg" viewBox="5706.974 2272.572 793.846 496.428"><defs><style>.cls-1{fill:#353031}.cls-2{fill:#231f20}.cls-3{fill:#b7b7b7}.cls-4{fill:#848484}.cls-5{fill:#8dc63f}.cls-7{fill:#e0e0e0}.cls-8{fill:#fff}.cls-11{fill:#fcfcfc}.cls-12{fill:#4aa3b1}.cls-13{fill:#def9ff}.cls-25{fill:#82a5f6}</style></defs><g id="Group_41" data-name="Group 41" transform="translate(4581 629)"><g id="Group_22" data-name="Group 22" transform="translate(1125.974 1655.647)"><path id="XMLID_134_" class="cls-1" d="M0 299.209h793.746V236.4H78.229z" transform="translate(0 98.017)"/><path id="XMLID_115_" class="cls-2" transform="rotate(180 396.897 212.052)" d="M0 0h793.746v26.878H0z"/><path id="XMLID_114_" class="cls-1" transform="rotate(180 396.923 242.177)" d="M0 0h695.288v60.263H0z"/><path id="XMLID_113_" class="cls-3" transform="rotate(180 396.923 219.583)" d="M0 0h695.288v14.995H0z"/><g id="XMLID_96_" transform="translate(120.95 203.706)"><ellipse id="XMLID_112_" class="cls-4" cx="58.848" cy="3.961" rx="58.848" ry="3.961" transform="translate(0 171.453)"/><g id="XMLID_109_" transform="translate(9.464 42.58)"><path id="XMLID_111_" class="cls-5" d="M96.731 174.1c2.122 7.639-8.2 30.414-3.112 45.551s13.722 21.785 13.722 21.785l10.893-3.678 10.893-3.678s2.688-10.61-2.4-25.6S99.56 181.6 96.731 174.1z" transform="translate(-92.19 -174.1)"/><path id="XMLID_110_" class="cls-3" d="M116.944 237.858l10.893-3.678s2.688-10.61-2.4-25.6c-5.098-15.141-27.166-26.88-30.137-34.38z" transform="translate(-90.901 -174.059)"/></g><g id="XMLID_106_" transform="translate(72.517 64.224)"><path id="XMLID_108_" class="cls-5" d="M159.45 189.4c-1.98 5.093-17.117 13.015-20.512 23.2-3.537 10.185-1.7 17.4-1.7 17.4l7.356 2.546 7.356 2.546s5.8-4.527 9.337-14.854c3.68-10.043-3.393-25.604-1.837-30.838z" transform="translate(-136.762 -189.4)"/><path id="XMLID_107_" class="cls-3" d="M142.3 232.688l7.356 2.546s5.8-4.527 9.337-14.854c3.537-10.185-3.4-25.746-1.98-30.98z" transform="translate(-134.466 -189.4)"/></g><g id="XMLID_103_" transform="translate(81.782 72.853)"><path id="XMLID_105_" class="cls-5" d="M162.251 195.5c-1.7 4.244-14.288 10.893-17.117 19.38-2.971 8.488-1.415 14.571-1.415 14.571l6.224 2.122 6.224 2.122s4.951-3.819 7.78-12.307c2.831-8.63-2.969-21.503-1.696-25.888z" transform="translate(-143.312 -195.5)"/><path id="XMLID_104_" class="cls-3" d="M148 231.573l6.224 2.122s4.951-3.819 7.78-12.307c2.971-8.488-2.829-21.5-1.556-25.888z" transform="translate(-141.368 -195.5)"/></g><g id="XMLID_100_" transform="translate(31.688)"><path id="XMLID_102_" class="cls-5" d="M135.061 144c-.566 12.307-27.161 40.741-27.161 65.356s9.2 38.9 9.2 38.9h35.649s9.2-14.146 9.2-38.9-26.181-53.049-26.888-65.356z" transform="translate(-107.9 -144)"/><path id="XMLID_101_" class="cls-3" d="M127.141 248.258h17.824s9.2-14.146 9.2-38.9S127.566 156.307 127 144v104.258z" transform="translate(-99.981 -144)"/></g><path id="XMLID_99_" d="M93.1 213.4c12.024 0 12.024 3.678 24.049 3.678s12.024-3.678 24.051-3.678 12.024 3.678 24.049 3.678 12.024-3.678 24.049-3.678v8.912H93.1V213.4z" transform="translate(-82.349 -115.225)" fill="#8b5e3c"/><path id="XMLID_98_" class="cls-7" d="M93.141 219.7h96.195v32.819a35.68 35.68 0 0 1-35.649 35.649h-25.038A35.68 35.68 0 0 1 93 252.519V219.7z" transform="translate(-82.39 -112.613)"/><path id="XMLID_97_" class="cls-3" transform="translate(10.751 107.087)" d="M0 0h96.195v5.941H0z"/></g><g id="XMLID_61_" transform="translate(288.725)"><ellipse id="XMLID_95_" class="cls-4" cx="58.848" cy="3.961" rx="58.848" ry="3.961" transform="translate(155.75 348.139)"/><path id="XMLID_94_" class="cls-7" d="M399.012 256.831H332.1l3.4-64.931h60.263z" transform="translate(-151.028 79.567)"/><path id="XMLID_93_" class="cls-7" d="M404.941 230.6l-33.527 1.839-33.526-1.839c0 6.083-9.054 14.288-15.985 17.966a7.59 7.59 0 0 0-4.1 6.79v.283h107.226v-.283a8.043 8.043 0 0 0-4.1-6.79c-6.935-3.678-15.988-11.883-15.988-17.966z" transform="translate(-156.957 95.613)"/><path id="XMLID_92_" class="cls-3" d="M333.7 209.712h62.526l-.566-8.912h-61.536z" transform="translate(-150.365 83.257)"/><path id="XMLID_91_" class="cls-8" d="M599.2 0H238.051A33.96 33.96 0 0 0 204.1 33.951v216.013a33.96 33.96 0 0 0 33.951 33.951H599.2a33.96 33.96 0 0 0 33.951-33.951V33.951A33.869 33.869 0 0 0 599.2 0z" transform="translate(-204.1)"/><path id="XMLID_90_" class="cls-7" d="M204.1 158.3v37.77a22.4 22.4 0 0 0 22.351 22.351h384.637a22.4 22.4 0 0 0 22.351-22.351V158.3z" transform="translate(-204.1 65.635)"/><path id="XMLID_89_" class="cls-2" d="M611.088 0H226.31a22.157 22.157 0 0 0-22.21 22.21v201.867h429.2V22.21A22.157 22.157 0 0 0 611.088 0z" transform="translate(-204.1)"/><ellipse id="XMLID_87_" class="cls-3" cx="9.054" cy="9.054" rx="9.054" ry="9.054" transform="translate(202.857 245.013)"/></g><g id="XMLID_6_" transform="translate(311.783 359.881)"><ellipse id="XMLID_60_" class="cls-4" cx="174.423" cy="3.961" rx="174.423" ry="3.961" transform="translate(0 17.966)"/><g id="XMLID_7_"><path id="XMLID_59_" class="cls-7" d="M546.471 254.4H242.61l-22.21 16.834h348.281z" transform="translate(-220.4 -254.4)"/><path id="XMLID_58_" class="cls-7" d="M222.8 270.968h343.476a6.11 6.11 0 0 0 2.4-4.668H220.4a6.11 6.11 0 0 0 2.4 4.668z" transform="translate(-220.4 -249.466)"/><g id="XMLID_9_" transform="translate(8.771 2.971)"><path id="XMLID_57_" class="cls-2" d="M289.5 261.451h11.883l2.263-4.951h-11.458z" transform="translate(-200.52 -256.5)"/><path id="XMLID_56_" class="cls-2" d="M280.3 261.451h11.883l2.688-4.951h-11.317z" transform="translate(-204.335 -256.5)"/><path id="XMLID_55_" class="cls-2" d="M338.549 256.5h-11.6l-.849 4.951h12.024z" transform="translate(-185.345 -256.5)"/><path id="XMLID_54_" class="cls-2" d="M298.6 261.451h11.883l1.839-4.951H301z" transform="translate(-196.747 -256.5)"/><path id="XMLID_53_" class="cls-2" d="M307.8 261.451h11.883l1.417-4.951h-11.461z" transform="translate(-192.932 -256.5)"/><path id="XMLID_52_" class="cls-2" d="M329.773 256.5h-11.458l-1.415 4.951h12.024z" transform="translate(-189.159 -256.5)"/><path id="XMLID_51_" class="cls-2" d="M262 261.451h11.741l3.678-4.951h-11.175z" transform="translate(-211.922 -256.5)"/><path id="XMLID_50_" class="cls-2" d="M243.8 261.451h11.458l4.668-4.951h-11.175z" transform="translate(-219.468 -256.5)"/><path id="XMLID_49_" class="cls-2" d="M271.2 261.451h11.741l3.254-4.951h-11.317z" transform="translate(-208.108 -256.5)"/><path id="XMLID_48_" class="cls-2" d="M239.4 265.651h12.166l4.668-4.951h-11.741z" transform="translate(-221.293 -254.759)"/><path id="XMLID_47_" class="cls-2" d="M335.3 261.451h11.883V256.5h-11.459z" transform="translate(-181.53 -256.5)"/><path id="XMLID_46_" class="cls-2" d="M252.9 261.451h11.6l4.244-4.951h-11.176z" transform="translate(-215.695 -256.5)"/><path id="XMLID_45_" class="cls-2" d="M381.539 261.451h11.883l-2.263-4.951H379.7z" transform="translate(-163.121 -256.5)"/><path id="XMLID_44_" class="cls-2" d="M409.454 261.451H421.2l-3.678-4.951H406.2z" transform="translate(-152.133 -256.5)"/><path id="XMLID_43_" class="cls-2" d="M418.778 261.451h11.741l-4.244-4.951H415.1z" transform="translate(-148.443 -256.5)"/><path id="XMLID_42_" class="cls-2" d="M428.1 261.451h11.6l-4.527-4.951H424z" transform="translate(-144.753 -256.5)"/><path id="XMLID_41_" class="cls-2" d="M400.088 261.451h11.883l-3.254-4.951H397.4z" transform="translate(-155.782 -256.5)"/><path id="XMLID_40_" class="cls-2" d="M449.068 261.451l-5.093-4.951H432.8l4.668 4.951z" transform="translate(-141.104 -256.5)"/><path id="XMLID_39_" class="cls-2" d="M353.666 261.451h11.883l-.849-4.951h-11.6z" transform="translate(-174.15 -256.5)"/><path id="XMLID_38_" class="cls-2" d="M362.849 261.451h12.024l-1.415-4.951H362z" transform="translate(-170.46 -256.5)"/><path id="XMLID_37_" class="cls-2" d="M344.4 261.451h11.883l-.566-4.951H344.4z" transform="translate(-177.757 -256.5)"/><path id="XMLID_36_" class="cls-2" d="M372.215 261.451H384.1l-1.839-4.951H370.8z" transform="translate(-166.811 -256.5)"/><path id="XMLID_35_" class="cls-2" d="M390.9 261.451h11.741l-2.688-4.951H388.5z" transform="translate(-159.472 -256.5)"/><path id="XMLID_34_" class="cls-2" d="M265.268 260.7h-11.741L249 265.651h12.166z" transform="translate(-217.312 -254.759)"/><path id="XMLID_33_" class="cls-2" d="M439.241 260.7H427.5l4.1 4.951h12.166z" transform="translate(-143.302 -254.759)"/><path id="XMLID_32_" class="cls-2" d="M411.583 260.7H399.7l2.829 4.951h12.307z" transform="translate(-154.828 -254.759)"/><path id="XMLID_31_" class="cls-2" d="M420.883 260.7H409l3.254 4.951h12.307z" transform="translate(-150.972 -254.759)"/><path id="XMLID_30_" class="cls-2" d="M402.383 260.7H390.5l2.263 4.951h12.449z" transform="translate(-158.643 -254.759)"/><path id="XMLID_29_" class="cls-2" d="M393.224 260.7H381.2l1.839 4.951h12.449z" transform="translate(-162.499 -254.759)"/><path id="XMLID_28_" class="cls-2" d="M430.083 260.7H418.2l3.678 4.951h12.307z" transform="translate(-147.158 -254.759)"/><path id="XMLID_27_" class="cls-2" d="M459.722 260.7H446l5.093 4.951h15.278z" transform="translate(-135.631 -254.759)"/><path id="XMLID_26_" class="cls-2" d="M247.2 261.451l4.951-4.951h-13.444l-6.507 4.951z" transform="translate(-224.278 -256.5)"/><path id="XMLID_25_" class="cls-2" d="M248.385 260.7h-15.136l-6.649 4.951h16.693z" transform="translate(-226.6 -254.759)"/><path id="XMLID_24_" class="cls-2" d="M384.024 260.7H372l1.415 4.951h12.449z" transform="translate(-166.314 -254.759)"/><path id="XMLID_23_" class="cls-2" d="M448.441 260.7H436.7l4.668 4.951h12.166z" transform="translate(-139.487 -254.759)"/><path id="XMLID_22_" class="cls-2" d="M446.793 261.451h13.439l-6.507-4.951H441.7z" transform="translate(-137.414 -256.5)"/><path id="XMLID_21_" class="cls-2" d="M274.485 260.7h-11.741l-4.244 4.951h12.307z" transform="translate(-213.373 -254.759)"/><path id="XMLID_20_" class="cls-2" d="M310.988 260.7h-12.025l-2.263 4.951h12.449z" transform="translate(-197.535 -254.759)"/><path id="XMLID_19_" class="cls-2" d="M301.812 260.7h-11.883l-2.829 4.951h12.449z" transform="translate(-201.515 -254.759)"/><path id="XMLID_18_" class="cls-2" d="M320.063 260.7h-12.024l-1.839 4.951h12.449z" transform="translate(-193.596 -254.759)"/><path id="XMLID_17_" class="cls-2" d="M292.736 260.7h-11.882l-3.254 4.951h12.307z" transform="translate(-205.454 -254.759)"/><path id="XMLID_16_" class="cls-2" d="M283.519 260.7h-11.741l-3.678 4.951h12.307z" transform="translate(-209.393 -254.759)"/><path id="XMLID_15_" class="cls-2" d="M329.239 260.7h-12.166l-1.273 4.951h12.449z" transform="translate(-189.615 -254.759)"/><path id="XMLID_14_" class="cls-2" d="M365.666 260.7H353.5l.566 4.951h12.449z" transform="translate(-173.984 -254.759)"/><path id="XMLID_13_" class="cls-2" d="M356.283 260.7H344.4v4.951h12.449z" transform="translate(-177.757 -254.759)"/><path id="XMLID_12_" class="cls-2" d="M338.315 260.7H326.29l-.99 4.951h12.59z" transform="translate(-185.677 -254.759)"/><path id="XMLID_11_" class="cls-2" d="M374.824 260.7H362.8l.849 4.951h12.59z" transform="translate(-170.128 -254.759)"/><path id="XMLID_10_" class="cls-2" d="M347.349 260.7h-12.025l-.424 4.951h12.449z" transform="translate(-181.696 -254.759)"/></g><path id="XMLID_8_" class="cls-3" d="M222.8 270.968h343.476a6.11 6.11 0 0 0 2.4-4.668H220.4a6.11 6.11 0 0 0 2.4 4.668z" transform="translate(-220.4 -249.466)"/></g></g><g id="XMLID_3_" transform="translate(676.049 343.895)"><ellipse id="XMLID_5_" class="cls-4" cx="24.049" cy="2.546" rx="24.049" ry="2.546" transform="translate(0 22.21)"/><path id="XMLID_4_" class="cls-7" d="M503.08 243.1h-2.4a22.761 22.761 0 0 0-22.78 22.775v1.7H526v-1.7a22.882 22.882 0 0 0-22.92-22.775z" transform="translate(-477.9 -243.1)"/></g></g><g id="Group_32" data-name="Group 32" transform="translate(1430.181 1671.83)"><path id="Rectangle_480" data-name="Rectangle 480" fill="#7763aa" d="M0 0h398.192v198.651H0z"/><path id="Rectangle_481" data-name="Rectangle 481" fill="#aad4e0" d="M0 0h398.211v16.75H0z"/><path id="Rectangle_482" data-name="Rectangle 482" class="cls-11" transform="translate(48.035 4.42)" d="M0 0h341.875v8.464H0z"/><ellipse id="Ellipse_1" data-name="Ellipse 1" class="cls-11" cx="2.674" cy="2.731" rx="2.674" ry="2.731" transform="translate(4.514 6.587)"/><ellipse id="Ellipse_2" data-name="Ellipse 2" class="cls-11" cx="2.674" cy="2.731" rx="2.674" ry="2.731" transform="translate(13.86 6.587)"/><ellipse id="Ellipse_3" data-name="Ellipse 3" class="cls-11" cx="2.674" cy="2.731" rx="2.674" ry="2.731" transform="translate(36.061 5.93)"/><path id="Rectangle_483" data-name="Rectangle 483" class="cls-12" transform="translate(12.94 144.855)" d="M0 0h26.846v27.428H0z"/><path id="Rectangle_484" data-name="Rectangle 484" class="cls-12" transform="translate(12.593 180.428)" d="M0 0h377.259v9.036H0z"/><path id="Rectangle_485" data-name="Rectangle 485" class="cls-13" transform="translate(62.898 35.386)" d="M0 0h48.587v1.698H0z"/><path id="Rectangle_486" data-name="Rectangle 486" class="cls-13" transform="translate(62.898 41.597)" d="M0 0h90.822v1.698H0z"/><path id="Rectangle_487" data-name="Rectangle 487" class="cls-13" transform="translate(62.898 47.913)" d="M0 0h287.424v1.698H0z"/><path id="Rectangle_488" data-name="Rectangle 488" class="cls-13" transform="translate(62.898 54.688)" d="M0 0h193.041v1.698H0z"/><path id="Rectangle_489" data-name="Rectangle 489" class="cls-13" transform="translate(62.898 60.759)" d="M0 0h268.281v1.698H0z"/><path id="Rectangle_490" data-name="Rectangle 490" class="cls-13" transform="translate(62.898 67.534)" d="M0 0h90.822v1.698H0z"/><path id="Rectangle_491" data-name="Rectangle 491" class="cls-13" transform="translate(62.898 73.37)" d="M0 0h127.477v1.698H0z"/><path id="Rectangle_492" data-name="Rectangle 492" class="cls-13" transform="translate(62.898 79.929)" d="M0 0h44.075v1.698H0z"/><path id="Rectangle_493" data-name="Rectangle 493" class="cls-13" transform="translate(62.898 87.155)" d="M0 0h134.155v1.698H0z"/><path id="Rectangle_494" data-name="Rectangle 494" class="cls-13" transform="translate(62.898 93.817)" d="M0 0h193.041v1.698H0z"/><path id="Rectangle_495" data-name="Rectangle 495" class="cls-13" transform="translate(62.898 100.489)" d="M0 0h90.822v1.698H0z"/><path id="Rectangle_497" data-name="Rectangle 497" class="cls-13" transform="translate(263.27 93.817)" d="M0 0h64.733v1.698H0z"/><path id="Rectangle_498" data-name="Rectangle 498" class="cls-13" transform="translate(216.82 67.534)" d="M0 0h154.991v1.698H0z"/><path id="Rectangle_499" data-name="Rectangle 499" class="cls-13" transform="translate(164.821 41.597)" d="M0 0h76.813v1.698H0z"/><path id="Rectangle_500" data-name="Rectangle 500" class="cls-13" transform="translate(250.597 41.597)" d="M0 0h109.194v1.698H0z"/><path id="Rectangle_501" data-name="Rectangle 501" class="cls-13" transform="translate(62.898 107.264)" d="M0 0h48.587v1.698H0z"/><path id="Rectangle_502" data-name="Rectangle 502" class="cls-13" transform="translate(62.898 113.476)" d="M0 0h90.822v1.698H0z"/><path id="Rectangle_503" data-name="Rectangle 503" class="cls-13" transform="translate(62.898 119.8)" d="M0 0h287.424v1.698H0z"/><path id="Rectangle_504" data-name="Rectangle 504" class="cls-13" transform="translate(62.898 126.566)" d="M0 0h193.041v1.698H0z"/><path id="Rectangle_505" data-name="Rectangle 505" class="cls-13" transform="translate(62.898 132.647)" d="M0 0h268.281v1.698H0z"/><path id="Rectangle_506" data-name="Rectangle 506" class="cls-13" transform="translate(62.898 139.412)" d="M0 0h90.822v1.698H0z"/><path id="Rectangle_507" data-name="Rectangle 507" class="cls-13" transform="translate(62.898 145.249)" d="M0 0h127.477v1.698H0z"/><path id="Rectangle_508" data-name="Rectangle 508" class="cls-13" transform="translate(62.898 151.808)" d="M0 0h44.075v1.698H0z"/><path id="Rectangle_509" data-name="Rectangle 509" class="cls-13" transform="translate(62.898 159.033)" d="M0 0h134.155v1.698H0z"/><path id="Rectangle_510" data-name="Rectangle 510" class="cls-13" transform="translate(62.898 165.705)" d="M0 0h193.041v1.698H0z"/><path id="Rectangle_511" data-name="Rectangle 511" class="cls-13" transform="translate(62.898 172.367)" d="M0 0h90.822v1.698H0z"/><path id="Rectangle_512" data-name="Rectangle 512" class="cls-13" transform="translate(164.821 113.476)" d="M0 0h76.813v1.698H0z"/><path id="Rectangle_513" data-name="Rectangle 513" class="cls-13" transform="translate(250.597 113.476)" d="M0 0h109.194v1.698H0z"/><path id="Rectangle_514" data-name="Rectangle 514" class="cls-12" transform="translate(12.94 35.38)" d="M0 0h26.846v103.641H0z"/><path id="Rectangle_517" data-name="Rectangle 517" class="cls-13" transform="translate(18.645 57.946)" d="M0 0h15.361v1.698H0z"/><path id="Rectangle_517-2" data-name="Rectangle 517" class="cls-13" transform="translate(18.645 65.177)" d="M0 0h9.142v1.698H0z"/><path id="Rectangle_517-3" data-name="Rectangle 517" class="cls-13" transform="translate(18.645 72.407)" d="M0 0h12.758v1.843H0z"/><path id="Rectangle_517-4" data-name="Rectangle 517" class="cls-13" transform="translate(18.645 79.638)" d="M0 0h15.361v1.698H0z"/><path id="Rectangle_517-5" data-name="Rectangle 517" class="cls-13" transform="translate(18.645 86.869)" d="M0 0h8.564v1.698H0z"/><path id="Rectangle_517-6" data-name="Rectangle 517" class="cls-13" transform="translate(18.645 94.1)" d="M0 0h11.746v1.698H0z"/><path id="Rectangle_517-7" data-name="Rectangle 517" class="cls-13" transform="translate(18.645 101.331)" d="M0 0h5.382v1.698H0z"/><path id="Rectangle_517-8" data-name="Rectangle 517" class="cls-13" transform="translate(18.645 108.562)" d="M0 0h10.01v1.698H0z"/><path id="Rectangle_517-9" data-name="Rectangle 517" class="cls-13" transform="translate(18.645 115.793)" d="M0 0h3.358v1.698H0z"/><path id="Rectangle_517-10" data-name="Rectangle 517" class="cls-13" transform="translate(18.645 123.023)" d="M0 0h13.336v1.698H0z"/><path id="Rectangle_517-11" data-name="Rectangle 517" class="cls-13" transform="translate(18.645 130.254)" d="M0 0h15.361v1.698H0z"/></g><g id="user" transform="translate(1448.742 1709.985)"><g id="Group_28" data-name="Group 28"><path id="Path_230" data-name="Path 230" d="M12.274 18.516L9.829 19.85a2.2 2.2 0 0 0-.392.279 8.188 8.188 0 0 0 10.52.027 2.169 2.169 0 0 0-.431-.289l-2.618-1.309a1 1 0 0 1-.552-.893v-1.026a3.953 3.953 0 0 0 .248-.318 6.023 6.023 0 0 0 .814-1.64A.822.822 0 0 0 18 13.9v-1.1a.818.818 0 0 0-.274-.607V10.61s.326-2.466-3.014-2.466S11.7 10.61 11.7 10.61v1.585a.817.817 0 0 0-.274.607v1.1a.822.822 0 0 0 .379.69 5.44 5.44 0 0 0 .991 2.051v1a1 1 0 0 1-.522.873z" transform="translate(-6.52 -5.671)" fill="#ecf0f1"/><g id="Group_27" data-name="Group 27"><path id="Path_231" data-name="Path 231" d="M8.332.145A8.187 8.187 0 0 0 2.921 14.6a2.177 2.177 0 0 1 .389-.276l2.444-1.334a1 1 0 0 0 .52-.876v-1a5.435 5.435 0 0 1-.991-2.051.822.822 0 0 1-.379-.69v-1.1a.818.818 0 0 1 .274-.607V5.083s-.326-2.466 3.014-2.466 3.014 2.466 3.014 2.466v1.585a.817.817 0 0 1 .274.607v1.1a.822.822 0 0 1-.583.782 6.023 6.023 0 0 1-.814 1.64 3.954 3.954 0 0 1-.248.318v1.027a1 1 0 0 0 .552.893l2.618 1.309a2.179 2.179 0 0 1 .43.288A8.19 8.19 0 0 0 8.332.145z" transform="translate(0 -.144)" fill="#556080"/></g></g><g id="Group_29" data-name="Group 29" transform="translate(10.202 10.113)"><path id="Path_232" data-name="Path 232" d="M35.457 48.633l-.615 2.254 1.437-1.437z" transform="translate(-34.271 -43.756)" fill="#eddcc7"/><path id="Path_233" data-name="Path 233" d="M50.811 33.421l-.386-.386a.614.614 0 0 0-.868 0l-1.107 1.108.819.82z" transform="translate(-43.674 -32.856)" fill="#d75a4a"/><path id="Rectangle_515" data-name="Rectangle 515" transform="rotate(45 .834 6.409)" fill="#f29c21" d="M0 0h1.159v5.077H0z"/><path id="Path_234" data-name="Path 234" d="M37.112 52.215l-.929-.93-1.435 1.435-.041.151z" transform="translate(-34.179 -45.586)" fill="#d6c4b1"/><path id="Path_235" data-name="Path 235" d="M52.03 37.155l1.107-1.107a.614.614 0 0 0 0-.868l-.5-.5-1.537 1.546z" transform="translate(-45.504 -34.119)" fill="#a34740"/><path id="Rectangle_516" data-name="Rectangle 516" transform="rotate(-135 2.84 2.705)" fill="#e18c25" d="M0 0h1.314v5.077H0z"/><path id="Path_236" data-name="Path 236" d="M33.309 55.219a.309.309 0 0 1-.219-.528l.682-.682a.309.309 0 0 1 .437.437l-.682.682a.308.308 0 0 1-.218.091z" transform="translate(-33 -47.407)" fill="#5e5e5e"/></g></g><g id="Group_33" data-name="Group 33" transform="translate(1775.281 1643.572)"><path id="Path_240" data-name="Path 240" d="M105.829 41.485C105.829 18.571 82.139 0 52.914 0S0 18.571 0 41.485c0 20.9 19.731 38.19 45.38 41.053l-11.813 20.875 22.626-20.53c27.697-1.328 49.636-19.347 49.636-41.398z" fill="#e5e5e5"/><path id="Path_241" data-name="Path 241" d="M419.6 580.628l22.626-20.528s15.532-.008 29.032-8.55c10.781-6.814 20.379-17.052 20.6-32.847 0 0-3.751 36.734-52.914 37.574z" transform="translate(-386.041 -477.215)" fill="#cecece"/><path id="Path_242" data-name="Path 242" class="cls-8" d="M96.814 620.188s-30.489.288-40.414-31.488c0 0 14.556 24.61 40.414 31.488z" transform="translate(-51.889 -541.616)"/><ellipse id="Ellipse_7" data-name="Ellipse 7" class="cls-25" cx="3.471" cy="3.471" rx="3.471" ry="3.471" transform="translate(38.206 37.734)"/><ellipse id="Ellipse_8" data-name="Ellipse 8" class="cls-25" cx="3.471" cy="3.471" rx="3.471" ry="3.471" transform="translate(49.443 37.734)"/><ellipse id="Ellipse_9" data-name="Ellipse 9" class="cls-25" cx="3.471" cy="3.471" rx="3.471" ry="3.471" transform="translate(60.688 37.734)"/></g></g></svg>