<svg xmlns="http://www.w3.org/2000/svg" viewBox="3739 1146 1928 937"><defs><style>.cls-1{fill:#fff;stroke:#707070}.cls-3{opacity:.3}.cls-4{clip-path:url(#clip-path-2)}.cls-5{fill:#005395}.cls-6{fill:#50c6f2}.cls-7{fill:#006ab2}.cls-8{fill:#0076bf}.cls-9{fill:#0066ae}.cls-10{fill:#00afed}.cls-11{fill:#008ed3}.cls-12{fill:#0097db}.cls-13{fill:#192d79}.cls-14{fill:#00a5e8}.cls-15{fill:#0072bb}.cls-16{fill:#0064ac}.cls-17{fill:#00bdf0}.cls-18{fill:#6bcbf3}.cls-19{fill:#5dc8f3}.cls-20{fill:#64caf3}.cls-21{fill:#00bbf0}.cls-22{fill:#00baf0}.cls-23{fill:#4ec6f2}.cls-24{fill:#0074bc}.cls-25{fill:#0051a3}.cls-26{fill:#004d99}.cls-27{fill:#0059a9}.cls-28{fill:#104698}.cls-29{fill:#00abed}.cls-30{fill:#004e9a}.cls-31{fill:#006ab5}.cls-32{fill:#007ac2}.cls-33{fill:#00b0ee}.cls-34{fill:#00a2e5}.cls-35{fill:#00a0e2}.cls-36{fill:#09d}.cls-37{fill:#007bc3}.cls-38{fill:#008ad0}.cls-39{fill:#0088cf}.cls-40{fill:#00aced}.cls-41{fill:#00aeed}.cls-42{fill:#0081c9}.cls-43{fill:#0053a4}.cls-44{fill:#004387}.cls-45{fill:#00a6e8}.cls-46{fill:#0092d7}.cls-47{fill:#0091d6}.cls-48{fill:#0098dc}.cls-49{fill:#007fc5}.cls-50{fill:#39c3f2}.cls-51{fill:#20c0f1}.cls-52{fill:#00a3e6}.cls-53{fill:#10c0f1}.cls-54{fill:#1cc0f1}.cls-55{fill:#8dd4f5}.cls-56{fill:#34c2f1}.cls-57{fill:#3ec3f2}.cls-58{fill:#007cc3}.cls-59{fill:#0088ce}.cls-60{fill:#0054a5}.cls-61{fill:#00a0e3}.cls-62{fill:#003470}.cls-63{fill:#009ce0}.cls-64{fill:#0080c7}.cls-65{fill:#004182}.cls-66{opacity:.4}</style><clipPath id="clip-path"><path id="Rectangle_467" data-name="Rectangle 467" class="cls-1" transform="translate(1171 2593)" d="M0 0h1928v353H0z"/></clipPath><clipPath id="clip-path-2"><path id="Rectangle_126" data-name="Rectangle 126" d="M0 0h1920v1161.192H0z"/></clipPath><clipPath id="clip-path-4"><path id="Rectangle_468" data-name="Rectangle 468" class="cls-1" transform="translate(1178 823)" d="M0 0h1920v400H0z"/></clipPath></defs><g id="Group_40" data-name="Group 40" transform="translate(3747 1003)"><g id="Mask_Group_1" data-name="Mask Group 1" transform="translate(-1179 -1866)" opacity=".5" clip-path="url(#clip-path)"><g id="Group_16" data-name="Group 16" class="cls-3" transform="translate(1582.6 807.5)"><g id="Group_8" data-name="Group 8" transform="translate(-403.6 977.5)"><g id="Group_4" data-name="Group 4" class="cls-4"><g id="Group_2" data-name="Group 2" transform="translate(-847.132 -601.384)"><path id="Path_4" data-name="Path 4" class="cls-5" d="M0 0l103.516-.2-.2 104.243-103.516.2z" transform="rotate(-14.153 890.902 -6270.57)"/><path id="Path_5" data-name="Path 5" class="cls-6" d="M0 0l37.351-.071-.071 37.614-37.351.071z" transform="rotate(-14.159 1640.522 -5105.21)"/><path id="Path_6" data-name="Path 6" class="cls-7" d="M0 0l99.247-.188-.187 99.945-99.247.188z" transform="rotate(-14.152 1473.602 -5424.721)"/><path id="Path_7" data-name="Path 7" class="cls-8" d="M0 0l96.046-.182-.182 96.72-96.046.182z" transform="rotate(-14.152 1419.631 -5886.03)"/><path id="Path_8" data-name="Path 8" class="cls-9" d="M0 0l100.314-.19-.19 101.019-100.314.19z" transform="rotate(-14.152 1354.523 -6332.87)"/><path id="Path_9" data-name="Path 9" class="cls-10" d="M0 0l65.1-.123-.123 65.555-65.1.123z" transform="rotate(-14.14 2164.455 -4191.891)"/><path id="Path_10" data-name="Path 10" class="cls-11" d="M0 0l87.508-.166-.166 88.123-87.508.166z" transform="rotate(-14.159 2067.16 -4589.516)"/><path id="Path_11" data-name="Path 11" class="cls-12" d="M0 0l84.307-.159-.159 84.9-84.307.159z" transform="rotate(-14.152 2017.75 -5058.437)"/><path id="Path_12" data-name="Path 12" class="cls-13" d="M0 0l108.852-.206-.206 109.616-108.852.206z" transform="rotate(-14.159 1913.842 -5453.76)"/><path id="Path_13" data-name="Path 13" class="cls-14" d="M0 0l80.038-.151-.151 80.6-80.038.151z" transform="rotate(-14.159 1909.655 -5973.253)"/><path id="Path_14" data-name="Path 14" class="cls-15" d="M0 0l97.113-.184-.184 97.795-97.113.184z" transform="rotate(-14.153 1822.645 -6393.5)"/><path id="Path_15" data-name="Path 15" class="cls-16" d="M0 0l98.18-.186-.192 102.094-98.18.186z" transform="rotate(-14.07 3143.032 386.438)"/><path id="Path_16" data-name="Path 16" class="cls-17" d="M0 0l42.687-.081-.081 42.987-42.687.081z" transform="rotate(-14.159 3182.642 -188.895)"/><path id="Path_17" data-name="Path 17" class="cls-18" d="M0 0l18.142-.034-.034 18.269-18.142.034z" transform="rotate(-14.153 3167.821 -698.68)"/><path id="Path_18" data-name="Path 18" class="cls-19" d="M0 0l21.343-.04-.043 21.493-21.343.04z" transform="rotate(-14.14 3109.253 -1151.675)"/><path id="Path_19" data-name="Path 19" class="cls-20" d="M0 0l18.142-.034-.034 18.269-18.142.034z" transform="rotate(-14.07 3057.612 -1618.847)"/><path id="Path_20" data-name="Path 20" class="cls-21" d="M0 0l42.687-.081-.081 42.987-42.687.081z" transform="rotate(-14.159 2952.016 -2013.877)"/><path id="Path_21" data-name="Path 21" class="cls-22" d="M0 0l42.687-.081-.081 42.987-42.687.081z" transform="rotate(-14.153 2895.888 -2466.995)"/><path id="Path_22" data-name="Path 22" class="cls-23" d="M0 0l22.411-.042-.042 22.568-22.411.042z" transform="rotate(-14.159 2870.802 -2969.785)"/><path id="Path_23" data-name="Path 23" class="cls-24" d="M0 0l96.046-.182-.182 96.72-96.046.182z" transform="rotate(-14.07 2687.445 -3274.322)"/><path id="Path_24" data-name="Path 24" class="cls-25" d="M0 0l103.516-.2-.2 104.243-103.516.2z" transform="rotate(-14.07 2618.284 -3712.875)"/><path id="Path_25" data-name="Path 25" class="cls-26" d="M0 0l104.583-.2-.2 105.318-104.583.2z" transform="rotate(-14.07 2555.939 -4165.503)"/><path id="Path_26" data-name="Path 26" class="cls-27" d="M0 0l102.449-.194-.194 103.168-102.449.194z" transform="rotate(-14.152 2501.556 -4614.853)"/><path id="Path_27" data-name="Path 27" class="cls-28" d="M0 0l105.65-.2-.2 106.392-105.65.2z" transform="rotate(-14.159 2438.681 -5063.555)"/><path id="Path_28" data-name="Path 28" class="cls-29" d="M0 0l73.635-.139-.135 74.152-73.635.139z" transform="rotate(-14.153 2438.932 -5594.408)"/><path id="Path_29" data-name="Path 29" class="cls-15" d="M0 0l96.046-.182-.182 96.72-96.046.182z" transform="rotate(-14.159 2338.46 -5995.317)"/><path id="Path_30" data-name="Path 30" class="cls-30" d="M0 0l104.583-.2-.2 105.318-104.583.2z" transform="rotate(-14.07 2264.474 -6452.454)"/><path id="Path_31" data-name="Path 31" class="cls-31" d="M0 0l97.113-.184-.186 98.87-97.113.184z" transform="rotate(-14.153 3598.821 332.44)"/><path id="Path_32" data-name="Path 32" class="cls-32" d="M0 0l93.911-.178-.178 94.571-93.911.177z" transform="rotate(-14.07 3556.548 -133.69)"/><path id="Path_33" data-name="Path 33" class="cls-33" d="M0 0l64.031-.121-.121 64.48-64.031.121z" transform="matrix(.97 -.245 .245 .97 267.565 847.759)"/><path id="Path_34" data-name="Path 34" class="cls-34" d="M0 0l82.172-.155-.155 82.75-82.172.155z" transform="rotate(-14.07 3463.102 -1073.23)"/><path id="Path_35" data-name="Path 35" class="cls-35" d="M0 0l73.635-.139-.135 74.152-73.635.139z" transform="rotate(-14.159 3412.55 -1541.61)"/><path id="Path_36" data-name="Path 36" class="cls-36" d="M0 0l77.9-.147-.143 78.447-77.9.147z" transform="rotate(-14.07 3353.85 -1997.842)"/><path id="Path_37" data-name="Path 37" class="cls-37" d="M0 0l93.911-.178-.178 94.571-93.911.177z" transform="rotate(-14.07 3269.611 -2416.937)"/><path id="Path_38" data-name="Path 38" class="cls-38" d="M0 0l88.576-.167-.167 89.2-88.576.167z" transform="rotate(-14.153 3214.072 -2877.976)"/><path id="Path_39" data-name="Path 39" class="cls-39" d="M0 0l87.508-.165-.165 88.123-87.508.165z" transform="rotate(-14.153 3160.689 -3334.928)"/><path id="Path_40" data-name="Path 40" class="cls-40" d="M0 0l69.366-.131-.131 69.854-69.366.131z" transform="rotate(-14.152 3133.02 -3835.056)"/><path id="Path_41" data-name="Path 41" class="cls-41" d="M0 0l67.232-.127-.127 67.7-67.232.127z" transform="matrix(.97 -.245 .245 .97 1143.836 622.487)"/><path id="Path_42" data-name="Path 42" class="cls-41" d="M0 0l66.165-.125L66.04 66.5l-66.165.13z" transform="rotate(-14.07 3027.025 -4766.968)"/><path id="Path_43" data-name="Path 43" class="cls-42" d="M0 0l88.576-.168-.168 89.2-88.576.168z" transform="rotate(-14.159 2929.053 -5158.381)"/><path id="Path_44" data-name="Path 44" class="cls-27" d="M0 0l100.315-.19-.19 101.019-100.315.19z" transform="rotate(-14.159 2848.219 -5585.801)"/><path id="Path_45" data-name="Path 45" class="cls-43" d="M0 0l102.449-.194-.194 103.168-102.449.194z" transform="rotate(-14.153 2787.91 -6039.671)"/><path id="Path_46" data-name="Path 46" class="cls-44" d="M0 0l105.65-.2-.2 106.392-105.65.2z" transform="rotate(-14.152 2727.21 -6488.136)"/><path id="Path_47" data-name="Path 47" class="cls-45" d="M0 0l80.038-.151-.151 80.6-80.038.151z" transform="rotate(-14.153 4093.074 241.326)"/><path id="Path_48" data-name="Path 48" class="cls-40" d="M0 0l70.434-.133L70.3 70.8l-70.434.133z" transform="rotate(-14.07 4059.107 -243.938)"/><path id="Path_49" data-name="Path 49" class="cls-10" d="M0 0l64.031-.121-.121 64.48-64.031.121z" transform="rotate(-14.152 4008.558 -710.49)"/><path id="Path_50" data-name="Path 50" class="cls-40" d="M0 0l69.366-.131-.131 69.853-69.366.131z" transform="matrix(.97 -.245 .245 .97 401.25 928.211)"/><path id="Path_51" data-name="Path 51" class="cls-46" d="M0 0l85.374-.161-.161 85.974-85.374.161z" transform="rotate(-14.153 3854.648 -1574.728)"/><path id="Path_52" data-name="Path 52" class="cls-47" d="M0 0l86.441-.163-.163 87.048-86.441.163z" transform="rotate(-14.07 3799.5 -2035.562)"/><path id="Path_53" data-name="Path 53" class="cls-48" d="M0 0l83.24-.157-.157 83.824-83.24.157z" transform="rotate(-14.153 3743.536 -2488.121)"/><path id="Path_54" data-name="Path 54" class="cls-49" d="M0 0l92.844-.176-.176 93.5-92.844.176z" transform="rotate(-14.152 3666.894 -2925.312)"/><path id="Path_55" data-name="Path 55" class="cls-50" d="M0 0l32.015-.061-.061 32.24-32.015.061z" transform="rotate(-14.159 3717.92 -3515.07)"/><path id="Path_56" data-name="Path 56" class="cls-51" d="M0 0l29.881-.057-.057 30.091-29.881.057z" transform="rotate(-14.18 3658.699 -3969.49)"/><path id="Path_57" data-name="Path 57" class="cls-52" d="M0 0l73.635-.139-.135 74.152-73.635.139z" transform="rotate(-14.153 3527.377 -4337.364)"/><path id="Path_58" data-name="Path 58" class="cls-53" d="M0 0l30.948-.058-.058 31.165-30.948.058z" transform="rotate(-14.135 3553.645 -4897.694)"/><path id="Path_59" data-name="Path 59" class="cls-54" d="M0 0l27.747-.052-.052 27.941-27.747.052z" transform="rotate(-14.07 3497.372 -5368.729)"/><path id="Path_60" data-name="Path 60" class="cls-55" d="M0 0l7.47-.014-.014 7.523-7.47.014z" transform="rotate(-14.135 3475.645 -5860.108)"/><path id="Path_61" data-name="Path 61" class="cls-56" d="M0 0l28.814-.054-.054 29.016-28.814.054z" transform="rotate(-14.152 3380.773 -6266.093)"/><path id="Path_62" data-name="Path 62" class="cls-57" d="M0 0l30.948-.058-.058 31.165-30.948.058z" transform="rotate(-14.129 3323.476 -6724.35)"/><path id="Path_63" data-name="Path 63" class="cls-58" d="M0 0l94.979-.18-.179 95.646-94.979.18z" transform="rotate(-14.152 4527.167 218.574)"/><path id="Path_64" data-name="Path 64" class="cls-59" d="M0 0l90.71-.172-.172 91.347-90.71.172z" transform="matrix(.97 -.245 .245 .97 196.381 1087.05)"/><path id="Path_65" data-name="Path 65" class="cls-60" d="M0 0l102.449-.194-.194 103.168-102.449.194z" transform="rotate(-14.153 4395.82 -674.84)"/><path id="Path_66" data-name="Path 66" class="cls-34" d="M0 0l78.971-.149-.149 79.525-78.971.149z" transform="matrix(.97 -.245 .245 .97 422.608 1035.015)"/><path id="Path_67" data-name="Path 67" class="cls-14" d="M0 0l77.9-.147-.144 78.447-77.9.147z" transform="rotate(-14.159 4324.17 -1644.82)"/><path id="Path_68" data-name="Path 68" class="cls-61" d="M0 0l82.173-.155-.155 82.75-82.173.155z" transform="rotate(-14.159 4259.09 -2091.202)"/><path id="Path_69" data-name="Path 69" class="cls-62" d="M0 0l101.382-.192-.2 108.542-101.382.192z" transform="rotate(-14.159 4957.064 165.205)"/><path id="Path_70" data-name="Path 70" class="cls-32" d="M0 0l94.979-.179-.179 95.645-94.979.179z" transform="rotate(-14.14 4933.158 -295.141)"/><path id="Path_71" data-name="Path 71" class="cls-63" d="M0 0l80.038-.151-.151 80.6-80.038.151z" transform="rotate(-14.07 4907.693 -792.038)"/><path id="Path_72" data-name="Path 72" class="cls-64" d="M0 0l92.844-.176-.176 93.5-92.844.176z" transform="rotate(-14.152 4817.638 -1212.184)"/><path id="Path_73" data-name="Path 73" class="cls-65" d="M0 0l100.315-.19-.2 106.392-100.315.19z" transform="rotate(-14.159 5420.5 108.433)"/></g><g id="Group_3" data-name="Group 3" class="cls-66" transform="translate(-831.101 -673.591)"><path id="Path_74" data-name="Path 74" class="cls-6" d="M0 0l56.56-.107-.107 56.958-56.56.107z" transform="rotate(-14.07 6068.637 92.189)"/><path id="Path_75" data-name="Path 75" class="cls-10" d="M0 0l99.247-.188-.187 99.945-99.247.188z" transform="rotate(-14.152 5103.606 -1103.606)"/><path id="Path_76" data-name="Path 76" class="cls-11" d="M0 0l133.4-.252-.252 134.334-133.4.252z" transform="rotate(-14.07 5143.332 -341.603)"/><path id="Path_77" data-name="Path 77" class="cls-12" d="M0 0l108.852-.206-.242 128.96-108.852.206z" transform="rotate(-14.153 5215.7 268.547)"/><path id="Path_78" data-name="Path 78" class="cls-18" d="M0 0l26.679-.051-.051 26.867-26.679.051z" transform="matrix(.97 -.245 .245 .97 1761.483 733.199)"/><path id="Path_79" data-name="Path 79" class="cls-19" d="M0 0l32.015-.061-.061 32.24-32.015.061z" transform="rotate(-14.152 3912.52 -6023.306)"/><path id="Path_80" data-name="Path 80" class="cls-20" d="M0 0l26.679-.05-.05 26.867-26.679.05z" transform="rotate(-14.18 4002.62 -5329.39)"/><path id="Path_81" data-name="Path 81" class="cls-21" d="M0 0l64.031-.121-.121 64.48-64.031.121z" transform="rotate(-14.159 4029.119 -4560.87)"/><path id="Path_82" data-name="Path 82" class="cls-22" d="M0 0l65.1-.123-.123 65.555-65.1.123z" transform="rotate(-14.07 4121.095 -3884.874)"/><path id="Path_83" data-name="Path 83" class="cls-23" d="M0 0l34.15-.065-.065 34.389-34.15.065z" transform="rotate(-14.14 4262.794 -3246.973)"/><path id="Path_84" data-name="Path 84" class="cls-24" d="M0 0l145.136-.275-.275 146.155-145.136.275z" transform="rotate(-14.159 4150.079 -2300.27)"/><path id="Path_85" data-name="Path 85" class="cls-25" d="M0 0l156.875-.3-.3 157.976-156.875.3z" transform="rotate(-14.153 4218.543 -1581.245)"/><path id="Path_86" data-name="Path 86" class="cls-26" d="M0 0l159.009-.3-.3 160.126-159.009.3z" transform="rotate(-14.153 4300.06 -884.713)"/><path id="Path_87" data-name="Path 87" class="cls-27" d="M0 0l155.808-.295-.295 156.9-155.808.295z" transform="rotate(-14.153 4393.379 -198.495)"/><path id="Path_88" data-name="Path 88" class="cls-28" d="M0 0l124.86-.236-.3 161.2L-.3 161.2z" transform="rotate(-14.153 4453.568 363.08)"/><path id="Path_89" data-name="Path 89" class="cls-33" d="M0 0l86.441-.164-.182 96.72-86.441.164z" transform="rotate(-14.159 3010.55 -6481.849)"/><path id="Path_90" data-name="Path 90" class="cls-34" d="M0 0l124.86-.236-.237 125.736-124.86.236z" transform="rotate(-14.152 3049.014 -5727.615)"/><path id="Path_91" data-name="Path 91" class="cls-35" d="M0 0l110.986-.21-.21 111.766-110.986.21z" transform="rotate(-14.152 3161.185 -5065.437)"/><path id="Path_92" data-name="Path 92" class="cls-36" d="M0 0l118.456-.224-.224 119.288-118.456.224z" transform="rotate(-14.07 3237.97 -4367.893)"/><path id="Path_93" data-name="Path 93" class="cls-37" d="M0 0l141.934-.268-.268 142.931-141.934.268z" transform="rotate(-14.153 3283.381 -3609.847)"/><path id="Path_94" data-name="Path 94" class="cls-38" d="M0 0l134.464-.254-.254 135.408-134.464.254z" transform="rotate(-14.153 3384.224 -2933.295)"/><path id="Path_95" data-name="Path 95" class="cls-39" d="M0 0l132.33-.25-.25 133.259-132.33.25z" transform="rotate(-14.159 3471.905 -2245.512)"/><path id="Path_96" data-name="Path 96" class="cls-40" d="M0 0l105.65-.2-.2 106.392-105.65.2z" transform="rotate(-14.152 3608.824 -1613.73)"/><path id="Path_97" data-name="Path 97" class="cls-41" d="M0 0l102.449-.194-.194 103.168-102.449.194z" transform="rotate(-14.159 3700.179 -926.616)"/><path id="Path_98" data-name="Path 98" class="cls-41" d="M0 0l101.382-.192-.192 102.092-101.382.192z" transform="rotate(-14.07 3799.75 -240.932)"/><path id="Path_99" data-name="Path 99" class="cls-42" d="M0 0l112.053-.212L111.8 135.2l-112.053.212z" transform="rotate(-14.07 3816.107 437.566)"/><path id="Path_100" data-name="Path 100" class="cls-10" d="M0 0l86.441-.163-.184 97.795-86.441.163z" transform="rotate(-14.152 2315.407 -6398.093)"/><path id="Path_101" data-name="Path 101" class="cls-40" d="M0 0l105.65-.2-.2 106.392-105.65.2z" transform="rotate(-14.153 2386.146 -5686.728)"/><path id="Path_102" data-name="Path 102" class="cls-46" d="M0 0l129.128-.244-.244 130.035-129.128.244z" transform="rotate(-14.159 2433.069 -4940.518)"/><path id="Path_103" data-name="Path 103" class="cls-47" d="M0 0l131.263-.248-.248 132.184-131.263.248z" transform="rotate(-14.152 2515.995 -4242.697)"/><path id="Path_104" data-name="Path 104" class="cls-48" d="M0 0l126.994-.24-.24 127.886-126.994.24z" transform="rotate(-14.152 2608.955 -3560.584)"/><path id="Path_105" data-name="Path 105" class="cls-49" d="M0 0l140.867-.266-.267 141.856-140.867.266z" transform="rotate(-14.07 2679.015 -2845.252)"/><path id="Path_106" data-name="Path 106" class="cls-50" d="M0 0l49.09-.093L49 49.342l-49.09.093z" transform="rotate(-14.07 2928.198 -2360.373)"/><path id="Path_107" data-name="Path 107" class="cls-51" d="M0 0l44.821-.085-.085 45.136-44.821.085z" transform="matrix(.97 -.245 .245 .97 498.788 687.315)"/><path id="Path_108" data-name="Path 108" class="cls-52" d="M0 0l112.053-.212-.212 112.84-112.053.212z" transform="rotate(-14.153 2985.978 -819.622)"/><path id="Path_109" data-name="Path 109" class="cls-53" d="M0 0l46.956-.089-.089 47.289-46.956.089z" transform="rotate(-14.152 3189.623 -273.558)"/><path id="Path_110" data-name="Path 110" class="cls-54" d="M0 0l41.62-.079-.079 41.912-41.62.079z" transform="rotate(-14.14 3289.46 407.975)"/><path id="Path_111" data-name="Path 111" class="cls-60" d="M0 0l116.322-.22-.295 156.9-116.322.22z" transform="rotate(-14.152 1510.502 -6181.968)"/><path id="Path_112" data-name="Path 112" class="cls-34" d="M0 0l120.591-.228-.228 121.438-120.591.228z" transform="rotate(-14.152 1662.68 -5570.714)"/><path id="Path_113" data-name="Path 113" class="cls-14" d="M0 0l118.456-.224-.224 119.288-118.456.224z" transform="rotate(-14.153 1752.423 -4878.628)"/><path id="Path_114" data-name="Path 114" class="cls-61" d="M0 0l123.792-.234-.234 124.662-123.792.234z" transform="rotate(-14.153 1830.372 -4173.096)"/><path id="Path_115" data-name="Path 115" class="cls-63" d="M0 0l99.247-.188-.23 122.512-99.247.188z" transform="rotate(-14.07 869.06 -6186.919)"/><path id="Path_116" data-name="Path 116" class="cls-64" d="M0 0l140.867-.266-.267 141.856-140.867.266z" transform="rotate(-14.153 928.071 -5438.229)"/></g></g><g id="Group_7" data-name="Group 7" class="cls-4"><g id="Group_5" data-name="Group 5" transform="translate(1018.247 297.937)"><path id="Path_117" data-name="Path 117" class="cls-5" d="M0 0l103.516-.2-.2 104.243-103.516.2z" transform="rotate(-14.152 5418.72 214.247)"/><path id="Path_118" data-name="Path 118" class="cls-6" d="M0 0l37.351-.071-.071 37.613-37.351.071z" transform="rotate(-14.153 4906.76 -1247.494)"/><path id="Path_119" data-name="Path 119" class="cls-7" d="M0 0l99.247-.188-.187 99.945-99.247.188z" transform="rotate(-14.07 4864.805 -659.348)"/><path id="Path_120" data-name="Path 120" class="cls-8" d="M0 0l96.046-.182-.182 96.72-96.046.182z" transform="rotate(-14.159 4913.325 -203.992)"/><path id="Path_121" data-name="Path 121" class="cls-9" d="M0 0l100.314-.19-.19 101.019-100.314.19z" transform="rotate(-14.152 4966.713 261.286)"/><path id="Path_122" data-name="Path 122" class="cls-10" d="M0 0l65.1-.123-.123 65.555-65.1.123z" transform="matrix(.97 -.245 .245 .97 629.238 985.146)"/><path id="Path_123" data-name="Path 123" class="cls-11" d="M0 0l87.508-.165-.165 88.123-87.508.165z" transform="rotate(-14.153 4298.472 -1531.615)"/><path id="Path_124" data-name="Path 124" class="cls-12" d="M0 0l84.307-.16-.16 84.9-84.307.16z" transform="matrix(.97 -.245 .245 .97 397.845 1034.119)"/><path id="Path_125" data-name="Path 125" class="cls-13" d="M0 0l108.852-.206-.206 109.616-108.852.206z" transform="rotate(-14.159 4373.214 -574.983)"/><path id="Path_126" data-name="Path 126" class="cls-14" d="M0 0l80.038-.151-.151 80.6-80.038.151z" transform="rotate(-14.18 4473.29 -180.681)"/><path id="Path_127" data-name="Path 127" class="cls-15" d="M0 0l97.113-.184-.184 97.795-97.113.184z" transform="rotate(-14.153 4509.437 313.646)"/><path id="Path_128" data-name="Path 128" class="cls-16" d="M0 0l98.18-.186-.192 102.094-98.18.186z" transform="rotate(-14.14 3186.478 -6474.198)"/><path id="Path_129" data-name="Path 129" class="cls-17" d="M0 0l42.687-.081-.081 42.987-42.687.081z" transform="rotate(-14.07 3345.738 -6160.299)"/><path id="Path_130" data-name="Path 130" class="cls-18" d="M0 0l18.142-.034-.034 18.269-18.142.034z" transform="rotate(-14.159 3442.56 -5740.348)"/><path id="Path_131" data-name="Path 131" class="cls-19" d="M0 0l21.343-.04-.043 21.493-21.343.04z" transform="rotate(-14.093 3510.56 -5301.847)"/><path id="Path_132" data-name="Path 132" class="cls-20" d="M0 0l18.142-.034-.034 18.269-18.142.034z" transform="rotate(-14.193 3551.017 -4816.01)"/><path id="Path_133" data-name="Path 133" class="cls-21" d="M0 0l42.687-.081-.081 42.987-42.687.081z" transform="rotate(-14.14 3579.452 -4320.63)"/><path id="Path_134" data-name="Path 134" class="cls-22" d="M0 0l42.687-.081-.081 42.987-42.687.081z" transform="rotate(-14.135 3638.289 -3864.955)"/><path id="Path_135" data-name="Path 135" class="cls-23" d="M0 0l22.411-.042-.042 22.568-22.411.042z" transform="rotate(-14.07 3729.999 -3463.189)"/><path id="Path_136" data-name="Path 136" class="cls-24" d="M0 0l96.046-.182-.182 96.72-96.046.182z" transform="rotate(-14.159 3652.44 -2829.173)"/><path id="Path_137" data-name="Path 137" class="cls-25" d="M0 0l103.516-.2-.2 104.243-103.516.2z" transform="rotate(-14.153 3696.357 -2354.496)"/><path id="Path_138" data-name="Path 138" class="cls-26" d="M0 0l104.583-.2-.2 105.318-104.583.2z" transform="rotate(-14.07 3756.03 -1907.18)"/><path id="Path_139" data-name="Path 139" class="cls-27" d="M0 0l102.449-.194-.194 103.168-102.449.194z" transform="rotate(-14.07 3819.15 -1450.088)"/><path id="Path_140" data-name="Path 140" class="cls-28" d="M0 0l105.65-.2-.2 106.392-105.65.2z" transform="rotate(-14.159 3864.372 -979.97)"/><path id="Path_141" data-name="Path 141" class="cls-29" d="M0 0l73.635-.139-.135 74.152-73.635.139z" transform="rotate(-14.153 3980.616 -596.123)"/><path id="Path_142" data-name="Path 142" class="cls-15" d="M0 0l96.046-.182-.182 96.72-96.046.182z" transform="rotate(-14.152 3996.559 -92.168)"/><path id="Path_143" data-name="Path 143" class="cls-30" d="M0 0l104.583-.2-.2 105.318-104.583.2z" transform="rotate(-14.159 4037.015 384.61)"/><path id="Path_144" data-name="Path 144" class="cls-31" d="M0 0l97.113-.184-.186 98.87-97.113.184z" transform="rotate(-14.159 2727.893 -6413.324)"/><path id="Path_145" data-name="Path 145" class="cls-32" d="M0 0l93.911-.178-.178 94.571-93.911.177z" transform="rotate(-14.07 2794.46 -5986.882)"/><path id="Path_146" data-name="Path 146" class="cls-33" d="M0 0l64.031-.121-.121 64.48-64.031.121z" transform="rotate(-14.159 2904.9 -5578.091)"/><path id="Path_147" data-name="Path 147" class="cls-34" d="M0 0l82.172-.155-.155 82.75-82.172.155z" transform="rotate(-14.07 2929.78 -5100.51)"/><path id="Path_148" data-name="Path 148" class="cls-35" d="M0 0l73.635-.139-.135 74.152-73.635.139z" transform="rotate(-14.18 2995.83 -4638.55)"/><path id="Path_149" data-name="Path 149" class="cls-36" d="M0 0l77.9-.147-.143 78.447-77.9.147z" transform="rotate(-14.153 3051.554 -4181.552)"/><path id="Path_150" data-name="Path 150" class="cls-37" d="M0 0l93.911-.178-.178 94.571-93.911.178z" transform="rotate(-14.159 3081.5 -3685.944)"/><path id="Path_151" data-name="Path 151" class="cls-38" d="M0 0l88.576-.168-.168 89.2-88.576.168z" transform="rotate(-14.159 3146.441 -3243.561)"/><path id="Path_152" data-name="Path 152" class="cls-39" d="M0 0l87.508-.165-.165 88.123-87.508.165z" transform="rotate(-14.07 3213.35 -2804.047)"/><path id="Path_153" data-name="Path 153" class="cls-40" d="M0 0l69.366-.131-.131 69.854-69.366.131z" transform="rotate(-14.152 3297.745 -2376.67)"/><path id="Path_154" data-name="Path 154" class="cls-41" d="M0 0l67.232-.127-.127 67.7-67.232.127z" transform="rotate(-14.14 3361.972 -1926.284)"/><path id="Path_155" data-name="Path 155" class="cls-41" d="M0 0l66.165-.125L66.04 66.5l-66.165.13z" transform="rotate(-14.152 3416.765 -1468.642)"/><path id="Path_156" data-name="Path 156" class="cls-42" d="M0 0l88.576-.168-.168 89.2-88.576.168z" transform="rotate(-14.159 3434.807 -962.345)"/><path id="Path_157" data-name="Path 157" class="cls-27" d="M0 0l100.314-.19-.19 101.019-100.314.19z" transform="rotate(-14.153 3470.673 -481.506)"/><path id="Path_158" data-name="Path 158" class="cls-43" d="M0 0l102.449-.194-.194 103.168-102.449.194z" transform="rotate(-14.07 3532.934 -25.098)"/><path id="Path_159" data-name="Path 159" class="cls-44" d="M0 0l105.65-.2-.2 106.392-105.65.2z" transform="rotate(-14.152 3579.812 444.367)"/><path id="Path_160" data-name="Path 160" class="cls-45" d="M0 0l80.038-.151-.151 80.6-80.038.151z" transform="matrix(.97 -.245 .245 .97 1635.748 368.735)"/><path id="Path_161" data-name="Path 161" class="cls-40" d="M0 0l70.434-.133-.134 70.928-70.434.133z" transform="rotate(-14.159 2375.383 -5963.783)"/><path id="Path_162" data-name="Path 162" class="cls-10" d="M0 0l64.031-.121-.121 64.48-64.031.121z" transform="rotate(-14.153 2445.432 -5524.014)"/><path id="Path_163" data-name="Path 163" class="cls-40" d="M0 0l69.366-.131-.131 69.853-69.366.131z" transform="matrix(.97 -.245 .245 .97 1312.388 455.613)"/><path id="Path_164" data-name="Path 164" class="cls-46" d="M0 0l85.374-.161-.161 85.974-85.374.161z" transform="rotate(-14.07 2523.715 -4577.015)"/><path id="Path_165" data-name="Path 165" class="cls-47" d="M0 0l86.441-.163-.163 87.048-86.441.163z" transform="rotate(-14.07 2577.04 -4119.319)"/><path id="Path_166" data-name="Path 166" class="cls-48" d="M0 0l83.24-.157-.157 83.824-83.24.157z" transform="rotate(-14.153 2637.592 -3654.446)"/><path id="Path_167" data-name="Path 167" class="cls-49" d="M0 0l92.844-.176-.176 93.5-92.844.176z" transform="matrix(.97 -.245 .245 .97 858.742 558.839)"/><path id="Path_168" data-name="Path 168" class="cls-50" d="M0 0l32.015-.06-.06 32.24-32.015.06z" transform="rotate(-14.14 2851.104 -2861.315)"/><path id="Path_169" data-name="Path 169" class="cls-51" d="M0 0l29.881-.056-.056 30.091-29.881.056z" transform="rotate(-14.104 2918.763 -2421.304)"/><path id="Path_170" data-name="Path 170" class="cls-52" d="M0 0l73.635-.139-.135 74.152-73.635.139z" transform="rotate(-14.153 2887.561 -1852.803)"/><path id="Path_171" data-name="Path 171" class="cls-53" d="M0 0l30.948-.059-.058 31.166-30.948.059z" transform="rotate(-14.159 3019.319 -1492.705)"/><path id="Path_172" data-name="Path 172" class="cls-54" d="M0 0l27.747-.052-.052 27.941-27.747.052z" transform="rotate(-14.07 3087.856 -1052.395)"/><path id="Path_173" data-name="Path 173" class="cls-55" d="M0 0l7.47-.014-.016 8.6-7.47.014z" transform="rotate(-14.217 3164.823 -629.135)"/><path id="Path_174" data-name="Path 174" class="cls-56" d="M0 0l28.814-.054-.054 29.016-28.814.054z" transform="rotate(-14.14 3200.706 -129.644)"/><path id="Path_175" data-name="Path 175" class="cls-57" d="M0 0l30.948-.059-.058 31.166-30.948.059z" transform="matrix(.97 -.245 .245 .97 17.391 805.374)"/><path id="Path_176" data-name="Path 176" class="cls-58" d="M0 0l94.979-.18-.179 95.646-94.979.18z" transform="rotate(-14.152 1817.215 -6314.876)"/><path id="Path_177" data-name="Path 177" class="cls-59" d="M0 0l90.71-.172-.172 91.347-90.71.172z" transform="rotate(-14.159 1881.8 -5863.971)"/><path id="Path_178" data-name="Path 178" class="cls-60" d="M0 0l102.449-.194-.194 103.168-102.449.194z" transform="rotate(-14.153 1917.57 -5380.726)"/><path id="Path_179" data-name="Path 179" class="cls-34" d="M0 0l78.971-.149-.149 79.525-78.971.149z" transform="rotate(-14.159 2016.63 -4975.455)"/><path id="Path_180" data-name="Path 180" class="cls-14" d="M0 0l77.9-.147-.144 78.447-77.9.147z" transform="rotate(-14.159 2072.892 -4523.75)"/><path id="Path_181" data-name="Path 181" class="cls-61" d="M0 0l82.173-.155-.155 82.75-82.173.155z" transform="rotate(-14.159 2123.272 -4057.764)"/><path id="Path_182" data-name="Path 182" class="cls-62" d="M0 0l101.382-.192-.2 108.542-101.382.192z" transform="rotate(-14.159 1330.82 -6224.55)"/><path id="Path_183" data-name="Path 183" class="cls-32" d="M0 0l94.979-.18-.179 95.646-94.979.18z" transform="rotate(-14.07 1411.05 -5815.937)"/><path id="Path_184" data-name="Path 184" class="cls-63" d="M0 0l80.038-.151-.151 80.6-80.038.151z" transform="rotate(-14.152 1495.607 -5374.414)"/><path id="Path_185" data-name="Path 185" class="cls-64" d="M0 0l92.844-.176-.176 93.5-92.844.176z" transform="rotate(-14.159 1533.402 -4890.391)"/><path id="Path_186" data-name="Path 186" class="cls-65" d="M0 0l100.315-.19-.2 106.392-100.315.19z" transform="rotate(-14.159 875.738 -6173.118)"/></g><g id="Group_6" data-name="Group 6" class="cls-66" transform="translate(1005.188 265.934)"><path id="Path_187" data-name="Path 187" class="cls-6" d="M0 0l55.493-.1-.1 55.883-55.493.1z" transform="rotate(-14.14 842.871 -6309.785)"/><path id="Path_188" data-name="Path 188" class="cls-10" d="M0 0l99.247-.188-.187 99.945-99.247.188z" transform="rotate(-14.152 1640.118 -4904.495)"/><path id="Path_189" data-name="Path 189" class="cls-11" d="M0 0l133.4-.252-.252 134.334-133.4.252z" transform="rotate(-14.159 1488.52 -5518.98)"/><path id="Path_190" data-name="Path 190" class="cls-12" d="M0 0l108.852-.206-.242 128.96-108.852.206z" transform="rotate(-14.153 1414.614 -6225.763)"/><path id="Path_191" data-name="Path 191" class="cls-18" d="M0 0l26.679-.05-.05 26.867-26.679.05z" transform="matrix(.97 -.245 .245 .97 0 786.205)"/><path id="Path_192" data-name="Path 192" class="cls-19" d="M0 0l32.015-.061-.061 32.24-32.015.061z" transform="rotate(-14.193 3060.286 -291.15)"/><path id="Path_193" data-name="Path 193" class="cls-20" d="M0 0l26.679-.05-.05 26.867-26.679.05z" transform="rotate(-14.14 2994.098 -995.05)"/><path id="Path_194" data-name="Path 194" class="cls-21" d="M0 0l64.03-.121-.121 64.48-64.03.121z" transform="rotate(-14.07 2842.013 -1610.105)"/><path id="Path_195" data-name="Path 195" class="cls-22" d="M0 0l65.1-.123-.123 65.555-65.1.123z" transform="rotate(-14.07 2751.595 -2302.607)"/><path id="Path_196" data-name="Path 196" class="cls-23" d="M0 0l34.15-.064-.064 34.389-34.15.064z" transform="rotate(-14.07 2717.775 -3067.868)"/><path id="Path_197" data-name="Path 197" class="cls-24" d="M0 0l145.136-.275-.275 146.155-145.136.275z" transform="rotate(-14.159 2431.302 -3496.566)"/><path id="Path_198" data-name="Path 198" class="cls-25" d="M0 0l156.875-.3-.3 157.976-156.875.3z" transform="rotate(-14.152 2324.27 -4166.286)"/><path id="Path_199" data-name="Path 199" class="cls-26" d="M0 0l159.009-.3-.3 160.126-159.009.3z" transform="rotate(-14.153 2234.612 -4855.7)"/><path id="Path_200" data-name="Path 200" class="cls-27" d="M0 0l155.808-.295-.295 156.9-155.808.295z" transform="rotate(-14.153 2148.257 -5555.915)"/><path id="Path_201" data-name="Path 201" class="cls-28" d="M0 0l124.86-.236-.3 161.2L-.3 161.2z" transform="rotate(-14.153 2055.108 -6240.006)"/><path id="Path_202" data-name="Path 202" class="cls-33" d="M0 0l86.441-.164-.182 96.72-86.441.164z" transform="rotate(-14.159 3731.285 425.32)"/><path id="Path_203" data-name="Path 203" class="cls-34" d="M0 0l124.859-.236-.236 125.736-124.859.236z" transform="rotate(-14.07 3611.662 -168.75)"/><path id="Path_204" data-name="Path 204" class="cls-35" d="M0 0l110.986-.21-.21 111.766-110.986.21z" transform="rotate(-14.152 3540.48 -889.77)"/><path id="Path_205" data-name="Path 205" class="cls-36" d="M0 0l118.456-.224-.224 119.288-118.456.224z" transform="rotate(-14.153 3439.382 -1564.957)"/><path id="Path_206" data-name="Path 206" class="cls-37" d="M0 0l141.934-.268-.268 142.931-141.934.268z" transform="rotate(-14.152 3308.278 -2204.516)"/><path id="Path_207" data-name="Path 207" class="cls-38" d="M0 0l134.464-.254-.254 135.408-134.464.254z" transform="rotate(-14.153 3237.2 -2918.334)"/><path id="Path_208" data-name="Path 208" class="cls-39" d="M0 0l132.33-.25-.25 133.259-132.33.25z" transform="rotate(-14.153 3151.29 -3614.298)"/><path id="Path_209" data-name="Path 209" class="cls-40" d="M0 0l105.65-.2-.2 106.392-105.65.2z" transform="rotate(-14.152 3111.531 -4369.738)"/><path id="Path_210" data-name="Path 210" class="cls-41" d="M0 0l102.449-.194-.194 103.168-102.449.194z" transform="rotate(-14.152 3033.974 -5071.052)"/><path id="Path_211" data-name="Path 211" class="cls-41" d="M0 0l101.382-.192-.192 102.092-101.382.192z" transform="rotate(-14.07 2943.788 -5782.042)"/><path id="Path_212" data-name="Path 212" class="cls-42" d="M0 0l112.053-.212L111.8 135.2l-112.053.212z" transform="rotate(-14.153 2799.535 -6382.117)"/><path id="Path_213" data-name="Path 213" class="cls-10" d="M0 0l86.441-.163-.184 97.795-86.441.163z" transform="rotate(-14.152 4430.546 337.372)"/><path id="Path_214" data-name="Path 214" class="cls-40" d="M0 0l105.65-.2-.2 106.392-105.65.2z" transform="rotate(-14.153 4333.7 -294.431)"/><path id="Path_215" data-name="Path 215" class="cls-46" d="M0 0l129.128-.244-.244 130.035-129.128.244z" transform="rotate(-14.152 4207.056 -934.469)"/><path id="Path_216" data-name="Path 216" class="cls-47" d="M0 0l131.263-.248-.248 132.184-131.263.248z" transform="rotate(-14.152 4113.592 -1620.857)"/><path id="Path_217" data-name="Path 217" class="cls-48" d="M0 0l126.994-.24-.24 127.886-126.994.24z" transform="rotate(-14.153 4035.335 -2324.758)"/><path id="Path_218" data-name="Path 218" class="cls-49" d="M0 0l140.867-.266-.267 141.856-140.867.266z" transform="rotate(-14.07 3928.841 -2999.04)"/><path id="Path_219" data-name="Path 219" class="cls-50" d="M0 0l49.09-.093L49 49.342l-49.09.093z" transform="rotate(-14.159 3998.449 -3888.957)"/><path id="Path_220" data-name="Path 220" class="cls-51" d="M0 0l44.821-.085-.085 45.136-44.821.085z" transform="rotate(-14.153 3917.551 -4591.347)"/><path id="Path_221" data-name="Path 221" class="cls-52" d="M0 0l112.053-.212-.212 112.84-112.053.212z" transform="rotate(-14.07 3714 -5149.402)"/><path id="Path_222" data-name="Path 222" class="cls-53" d="M0 0l46.956-.089-.089 47.289-46.956.089z" transform="rotate(-14.152 3739.233 -5975.33)"/><path id="Path_223" data-name="Path 223" class="cls-54" d="M0 0l41.62-.079-.079 41.912-41.62.079z" transform="rotate(-14.159 3660.496 -6671.867)"/><path id="Path_224" data-name="Path 224" class="cls-60" d="M0 0l116.322-.22-.295 156.9-116.322.22z" transform="rotate(-14.159 5008.696 267.082)"/><path id="Path_225" data-name="Path 225" class="cls-34" d="M0 0l120.591-.228-.228 121.438-120.591.228z" transform="rotate(-14.07 5019.508 -351.897)"/><path id="Path_226" data-name="Path 226" class="cls-14" d="M0 0l118.456-.224-.224 119.288-118.456.224z" transform="rotate(-14.07 4932.595 -1053.308)"/><path id="Path_227" data-name="Path 227" class="cls-61" d="M0 0l123.792-.234-.234 124.662-123.792.234z" transform="rotate(-14.159 4822.819 -1721.568)"/><path id="Path_228" data-name="Path 228" class="cls-63" d="M0 0l99.247-.188-.23 122.512-99.247.188z" transform="rotate(-14.159 5774.586 172.342)"/><path id="Path_229" data-name="Path 229" class="cls-64" d="M0 0l140.867-.266-.267 141.856-140.867.266z" transform="rotate(-14.153 5670.902 -384.304)"/></g></g></g></g></g><g id="Mask_Group_2" data-name="Mask Group 2" transform="translate(-1178 -680)" opacity=".51" clip-path="url(#clip-path-4)"><g id="Group_17" data-name="Group 17" class="cls-3" transform="translate(1098.6 760.5)"><g id="Group_8-2" data-name="Group 8" transform="translate(79.4 62.5)"><g id="Group_4-2" data-name="Group 4" class="cls-4"><g id="Group_2-2" data-name="Group 2" transform="translate(-847.132 -601.384)"><path id="Path_4-2" data-name="Path 4" class="cls-5" d="M0 0l103.516-.2-.2 104.243-103.516.2z" transform="rotate(-14.153 890.902 -6270.57)"/><path id="Path_5-2" data-name="Path 5" class="cls-6" d="M0 0l37.351-.071-.071 37.614-37.351.071z" transform="rotate(-14.159 1640.522 -5105.21)"/><path id="Path_6-2" data-name="Path 6" class="cls-7" d="M0 0l99.247-.188-.187 99.945-99.247.188z" transform="rotate(-14.152 1473.602 -5424.721)"/><path id="Path_7-2" data-name="Path 7" class="cls-8" d="M0 0l96.046-.182-.182 96.72-96.046.182z" transform="rotate(-14.152 1419.631 -5886.03)"/><path id="Path_8-2" data-name="Path 8" class="cls-9" d="M0 0l100.314-.19-.19 101.019-100.314.19z" transform="rotate(-14.152 1354.523 -6332.87)"/><path id="Path_9-2" data-name="Path 9" class="cls-10" d="M0 0l65.1-.123-.123 65.555-65.1.123z" transform="rotate(-14.14 2164.455 -4191.891)"/><path id="Path_10-2" data-name="Path 10" class="cls-11" d="M0 0l87.508-.166-.166 88.123-87.508.166z" transform="rotate(-14.159 2067.16 -4589.516)"/><path id="Path_11-2" data-name="Path 11" class="cls-12" d="M0 0l84.307-.159-.159 84.9-84.307.159z" transform="rotate(-14.152 2017.75 -5058.437)"/><path id="Path_12-2" data-name="Path 12" class="cls-13" d="M0 0l108.852-.206-.206 109.616-108.852.206z" transform="rotate(-14.159 1913.842 -5453.76)"/><path id="Path_13-2" data-name="Path 13" class="cls-14" d="M0 0l80.038-.151-.151 80.6-80.038.151z" transform="rotate(-14.159 1909.655 -5973.253)"/><path id="Path_14-2" data-name="Path 14" class="cls-15" d="M0 0l97.113-.184-.184 97.795-97.113.184z" transform="rotate(-14.153 1822.645 -6393.5)"/><path id="Path_15-2" data-name="Path 15" class="cls-16" d="M0 0l98.18-.186-.192 102.094-98.18.186z" transform="rotate(-14.07 3143.032 386.438)"/><path id="Path_16-2" data-name="Path 16" class="cls-17" d="M0 0l42.687-.081-.081 42.987-42.687.081z" transform="rotate(-14.159 3182.642 -188.895)"/><path id="Path_17-2" data-name="Path 17" class="cls-18" d="M0 0l18.142-.034-.034 18.269-18.142.034z" transform="rotate(-14.153 3167.821 -698.68)"/><path id="Path_18-2" data-name="Path 18" class="cls-19" d="M0 0l21.343-.04-.043 21.493-21.343.04z" transform="rotate(-14.14 3109.253 -1151.675)"/><path id="Path_19-2" data-name="Path 19" class="cls-20" d="M0 0l18.142-.034-.034 18.269-18.142.034z" transform="rotate(-14.07 3057.612 -1618.847)"/><path id="Path_20-2" data-name="Path 20" class="cls-21" d="M0 0l42.687-.081-.081 42.987-42.687.081z" transform="rotate(-14.159 2952.016 -2013.877)"/><path id="Path_21-2" data-name="Path 21" class="cls-22" d="M0 0l42.687-.081-.081 42.987-42.687.081z" transform="rotate(-14.153 2895.888 -2466.995)"/><path id="Path_22-2" data-name="Path 22" class="cls-23" d="M0 0l22.411-.042-.042 22.568-22.411.042z" transform="rotate(-14.159 2870.802 -2969.785)"/><path id="Path_23-2" data-name="Path 23" class="cls-24" d="M0 0l96.046-.182-.182 96.72-96.046.182z" transform="rotate(-14.07 2687.445 -3274.322)"/><path id="Path_24-2" data-name="Path 24" class="cls-25" d="M0 0l103.516-.2-.2 104.243-103.516.2z" transform="rotate(-14.07 2618.284 -3712.875)"/><path id="Path_25-2" data-name="Path 25" class="cls-26" d="M0 0l104.583-.2-.2 105.318-104.583.2z" transform="rotate(-14.07 2555.939 -4165.503)"/><path id="Path_26-2" data-name="Path 26" class="cls-27" d="M0 0l102.449-.194-.194 103.168-102.449.194z" transform="rotate(-14.152 2501.556 -4614.853)"/><path id="Path_27-2" data-name="Path 27" class="cls-28" d="M0 0l105.65-.2-.2 106.392-105.65.2z" transform="rotate(-14.159 2438.681 -5063.555)"/><path id="Path_28-2" data-name="Path 28" class="cls-29" d="M0 0l73.635-.139-.135 74.152-73.635.139z" transform="rotate(-14.153 2438.932 -5594.408)"/><path id="Path_29-2" data-name="Path 29" class="cls-15" d="M0 0l96.046-.182-.182 96.72-96.046.182z" transform="rotate(-14.159 2338.46 -5995.317)"/><path id="Path_30-2" data-name="Path 30" class="cls-30" d="M0 0l104.583-.2-.2 105.318-104.583.2z" transform="rotate(-14.07 2264.474 -6452.454)"/><path id="Path_31-2" data-name="Path 31" class="cls-31" d="M0 0l97.113-.184-.186 98.87-97.113.184z" transform="rotate(-14.153 3598.821 332.44)"/><path id="Path_32-2" data-name="Path 32" class="cls-32" d="M0 0l93.911-.178-.178 94.571-93.911.177z" transform="rotate(-14.07 3556.548 -133.69)"/><path id="Path_33-2" data-name="Path 33" class="cls-33" d="M0 0l64.031-.121-.121 64.48-64.031.121z" transform="matrix(.97 -.245 .245 .97 267.565 847.759)"/><path id="Path_34-2" data-name="Path 34" class="cls-34" d="M0 0l82.172-.155-.155 82.75-82.172.155z" transform="rotate(-14.07 3463.102 -1073.23)"/><path id="Path_35-2" data-name="Path 35" class="cls-35" d="M0 0l73.635-.139-.135 74.152-73.635.139z" transform="rotate(-14.159 3412.55 -1541.61)"/><path id="Path_36-2" data-name="Path 36" class="cls-36" d="M0 0l77.9-.147-.143 78.447-77.9.147z" transform="rotate(-14.07 3353.85 -1997.842)"/><path id="Path_37-2" data-name="Path 37" class="cls-37" d="M0 0l93.911-.178-.178 94.571-93.911.177z" transform="rotate(-14.07 3269.611 -2416.937)"/><path id="Path_38-2" data-name="Path 38" class="cls-38" d="M0 0l88.576-.167-.167 89.2-88.576.167z" transform="rotate(-14.153 3214.072 -2877.976)"/><path id="Path_39-2" data-name="Path 39" class="cls-39" d="M0 0l87.508-.165-.165 88.123-87.508.165z" transform="rotate(-14.153 3160.689 -3334.928)"/><path id="Path_40-2" data-name="Path 40" class="cls-40" d="M0 0l69.366-.131-.131 69.854-69.366.131z" transform="rotate(-14.152 3133.02 -3835.056)"/><path id="Path_41-2" data-name="Path 41" class="cls-41" d="M0 0l67.232-.127-.127 67.7-67.232.127z" transform="matrix(.97 -.245 .245 .97 1143.836 622.487)"/><path id="Path_42-2" data-name="Path 42" class="cls-41" d="M0 0l66.165-.125L66.04 66.5l-66.165.13z" transform="rotate(-14.07 3027.025 -4766.968)"/><path id="Path_43-2" data-name="Path 43" class="cls-42" d="M0 0l88.576-.168-.168 89.2-88.576.168z" transform="rotate(-14.159 2929.053 -5158.381)"/><path id="Path_44-2" data-name="Path 44" class="cls-27" d="M0 0l100.315-.19-.19 101.019-100.315.19z" transform="rotate(-14.159 2848.219 -5585.801)"/><path id="Path_45-2" data-name="Path 45" class="cls-43" d="M0 0l102.449-.194-.194 103.168-102.449.194z" transform="rotate(-14.153 2787.91 -6039.671)"/><path id="Path_46-2" data-name="Path 46" class="cls-44" d="M0 0l105.65-.2-.2 106.392-105.65.2z" transform="rotate(-14.152 2727.21 -6488.136)"/><path id="Path_47-2" data-name="Path 47" class="cls-45" d="M0 0l80.038-.151-.151 80.6-80.038.151z" transform="rotate(-14.153 4093.074 241.326)"/><path id="Path_48-2" data-name="Path 48" class="cls-40" d="M0 0l70.434-.133L70.3 70.8l-70.434.133z" transform="rotate(-14.07 4059.107 -243.938)"/><path id="Path_49-2" data-name="Path 49" class="cls-10" d="M0 0l64.031-.121-.121 64.48-64.031.121z" transform="rotate(-14.152 4008.558 -710.49)"/><path id="Path_50-2" data-name="Path 50" class="cls-40" d="M0 0l69.366-.131-.131 69.853-69.366.131z" transform="matrix(.97 -.245 .245 .97 401.25 928.211)"/><path id="Path_51-2" data-name="Path 51" class="cls-46" d="M0 0l85.374-.161-.161 85.974-85.374.161z" transform="rotate(-14.153 3854.648 -1574.728)"/><path id="Path_52-2" data-name="Path 52" class="cls-47" d="M0 0l86.441-.163-.163 87.048-86.441.163z" transform="rotate(-14.07 3799.5 -2035.562)"/><path id="Path_53-2" data-name="Path 53" class="cls-48" d="M0 0l83.24-.157-.157 83.824-83.24.157z" transform="rotate(-14.153 3743.536 -2488.121)"/><path id="Path_54-2" data-name="Path 54" class="cls-49" d="M0 0l92.844-.176-.176 93.5-92.844.176z" transform="rotate(-14.152 3666.894 -2925.312)"/><path id="Path_55-2" data-name="Path 55" class="cls-50" d="M0 0l32.015-.061-.061 32.24-32.015.061z" transform="rotate(-14.159 3717.92 -3515.07)"/><path id="Path_56-2" data-name="Path 56" class="cls-51" d="M0 0l29.881-.057-.057 30.091-29.881.057z" transform="rotate(-14.18 3658.699 -3969.49)"/><path id="Path_57-2" data-name="Path 57" class="cls-52" d="M0 0l73.635-.139-.135 74.152-73.635.139z" transform="rotate(-14.153 3527.377 -4337.364)"/><path id="Path_58-2" data-name="Path 58" class="cls-53" d="M0 0l30.948-.058-.058 31.165-30.948.058z" transform="rotate(-14.135 3553.645 -4897.694)"/><path id="Path_59-2" data-name="Path 59" class="cls-54" d="M0 0l27.747-.052-.052 27.941-27.747.052z" transform="rotate(-14.07 3497.372 -5368.729)"/><path id="Path_60-2" data-name="Path 60" class="cls-55" d="M0 0l7.47-.014-.014 7.523-7.47.014z" transform="rotate(-14.135 3475.645 -5860.108)"/><path id="Path_61-2" data-name="Path 61" class="cls-56" d="M0 0l28.814-.054-.054 29.016-28.814.054z" transform="rotate(-14.152 3380.773 -6266.093)"/><path id="Path_62-2" data-name="Path 62" class="cls-57" d="M0 0l30.948-.058-.058 31.165-30.948.058z" transform="rotate(-14.129 3323.476 -6724.35)"/><path id="Path_63-2" data-name="Path 63" class="cls-58" d="M0 0l94.979-.18-.179 95.646-94.979.18z" transform="rotate(-14.152 4527.167 218.574)"/><path id="Path_64-2" data-name="Path 64" class="cls-59" d="M0 0l90.71-.172-.172 91.347-90.71.172z" transform="matrix(.97 -.245 .245 .97 196.381 1087.05)"/><path id="Path_65-2" data-name="Path 65" class="cls-60" d="M0 0l102.449-.194-.194 103.168-102.449.194z" transform="rotate(-14.153 4395.82 -674.84)"/><path id="Path_66-2" data-name="Path 66" class="cls-34" d="M0 0l78.971-.149-.149 79.525-78.971.149z" transform="matrix(.97 -.245 .245 .97 422.608 1035.015)"/><path id="Path_67-2" data-name="Path 67" class="cls-14" d="M0 0l77.9-.147-.144 78.447-77.9.147z" transform="rotate(-14.159 4324.17 -1644.82)"/><path id="Path_68-2" data-name="Path 68" class="cls-61" d="M0 0l82.173-.155-.155 82.75-82.173.155z" transform="rotate(-14.159 4259.09 -2091.202)"/><path id="Path_69-2" data-name="Path 69" class="cls-62" d="M0 0l101.382-.192-.2 108.542-101.382.192z" transform="rotate(-14.159 4957.064 165.205)"/><path id="Path_70-2" data-name="Path 70" class="cls-32" d="M0 0l94.979-.179-.179 95.645-94.979.179z" transform="rotate(-14.14 4933.158 -295.141)"/><path id="Path_71-2" data-name="Path 71" class="cls-63" d="M0 0l80.038-.151-.151 80.6-80.038.151z" transform="rotate(-14.07 4907.693 -792.038)"/><path id="Path_72-2" data-name="Path 72" class="cls-64" d="M0 0l92.844-.176-.176 93.5-92.844.176z" transform="rotate(-14.152 4817.638 -1212.184)"/><path id="Path_73-2" data-name="Path 73" class="cls-65" d="M0 0l100.315-.19-.2 106.392-100.315.19z" transform="rotate(-14.159 5420.5 108.433)"/></g><g id="Group_3-2" data-name="Group 3" class="cls-66" transform="translate(-831.101 -673.591)"><path id="Path_74-2" data-name="Path 74" class="cls-6" d="M0 0l56.56-.107-.107 56.958-56.56.107z" transform="rotate(-14.07 6068.637 92.189)"/><path id="Path_75-2" data-name="Path 75" class="cls-10" d="M0 0l99.247-.188-.187 99.945-99.247.188z" transform="rotate(-14.152 5103.606 -1103.606)"/><path id="Path_76-2" data-name="Path 76" class="cls-11" d="M0 0l133.4-.252-.252 134.334-133.4.252z" transform="rotate(-14.07 5143.332 -341.603)"/><path id="Path_77-2" data-name="Path 77" class="cls-12" d="M0 0l108.852-.206-.242 128.96-108.852.206z" transform="rotate(-14.153 5215.7 268.547)"/><path id="Path_78-2" data-name="Path 78" class="cls-18" d="M0 0l26.679-.051-.051 26.867-26.679.051z" transform="matrix(.97 -.245 .245 .97 1761.483 733.199)"/><path id="Path_79-2" data-name="Path 79" class="cls-19" d="M0 0l32.015-.061-.061 32.24-32.015.061z" transform="rotate(-14.152 3912.52 -6023.306)"/><path id="Path_80-2" data-name="Path 80" class="cls-20" d="M0 0l26.679-.05-.05 26.867-26.679.05z" transform="rotate(-14.18 4002.62 -5329.39)"/><path id="Path_81-2" data-name="Path 81" class="cls-21" d="M0 0l64.031-.121-.121 64.48-64.031.121z" transform="rotate(-14.159 4029.119 -4560.87)"/><path id="Path_82-2" data-name="Path 82" class="cls-22" d="M0 0l65.1-.123-.123 65.555-65.1.123z" transform="rotate(-14.07 4121.095 -3884.874)"/><path id="Path_83-2" data-name="Path 83" class="cls-23" d="M0 0l34.15-.065-.065 34.389-34.15.065z" transform="rotate(-14.14 4262.794 -3246.973)"/><path id="Path_84-2" data-name="Path 84" class="cls-24" d="M0 0l145.136-.275-.275 146.155-145.136.275z" transform="rotate(-14.159 4150.079 -2300.27)"/><path id="Path_85-2" data-name="Path 85" class="cls-25" d="M0 0l156.875-.3-.3 157.976-156.875.3z" transform="rotate(-14.153 4218.543 -1581.245)"/><path id="Path_86-2" data-name="Path 86" class="cls-26" d="M0 0l159.009-.3-.3 160.126-159.009.3z" transform="rotate(-14.153 4300.06 -884.713)"/><path id="Path_87-2" data-name="Path 87" class="cls-27" d="M0 0l155.808-.295-.295 156.9-155.808.295z" transform="rotate(-14.153 4393.379 -198.495)"/><path id="Path_88-2" data-name="Path 88" class="cls-28" d="M0 0l124.86-.236-.3 161.2L-.3 161.2z" transform="rotate(-14.153 4453.568 363.08)"/><path id="Path_89-2" data-name="Path 89" class="cls-33" d="M0 0l86.441-.164-.182 96.72-86.441.164z" transform="rotate(-14.159 3010.55 -6481.849)"/><path id="Path_90-2" data-name="Path 90" class="cls-34" d="M0 0l124.86-.236-.237 125.736-124.86.236z" transform="rotate(-14.152 3049.014 -5727.615)"/><path id="Path_91-2" data-name="Path 91" class="cls-35" d="M0 0l110.986-.21-.21 111.766-110.986.21z" transform="rotate(-14.152 3161.185 -5065.437)"/><path id="Path_92-2" data-name="Path 92" class="cls-36" d="M0 0l118.456-.224-.224 119.288-118.456.224z" transform="rotate(-14.07 3237.97 -4367.893)"/><path id="Path_93-2" data-name="Path 93" class="cls-37" d="M0 0l141.934-.268-.268 142.931-141.934.268z" transform="rotate(-14.153 3283.381 -3609.847)"/><path id="Path_94-2" data-name="Path 94" class="cls-38" d="M0 0l134.464-.254-.254 135.408-134.464.254z" transform="rotate(-14.153 3384.224 -2933.295)"/><path id="Path_95-2" data-name="Path 95" class="cls-39" d="M0 0l132.33-.25-.25 133.259-132.33.25z" transform="rotate(-14.159 3471.905 -2245.512)"/><path id="Path_96-2" data-name="Path 96" class="cls-40" d="M0 0l105.65-.2-.2 106.392-105.65.2z" transform="rotate(-14.152 3608.824 -1613.73)"/><path id="Path_97-2" data-name="Path 97" class="cls-41" d="M0 0l102.449-.194-.194 103.168-102.449.194z" transform="rotate(-14.159 3700.179 -926.616)"/><path id="Path_98-2" data-name="Path 98" class="cls-41" d="M0 0l101.382-.192-.192 102.092-101.382.192z" transform="rotate(-14.07 3799.75 -240.932)"/><path id="Path_99-2" data-name="Path 99" class="cls-42" d="M0 0l112.053-.212L111.8 135.2l-112.053.212z" transform="rotate(-14.07 3816.107 437.566)"/><path id="Path_100-2" data-name="Path 100" class="cls-10" d="M0 0l86.441-.163-.184 97.795-86.441.163z" transform="rotate(-14.152 2315.407 -6398.093)"/><path id="Path_101-2" data-name="Path 101" class="cls-40" d="M0 0l105.65-.2-.2 106.392-105.65.2z" transform="rotate(-14.153 2386.146 -5686.728)"/><path id="Path_102-2" data-name="Path 102" class="cls-46" d="M0 0l129.128-.244-.244 130.035-129.128.244z" transform="rotate(-14.159 2433.069 -4940.518)"/><path id="Path_103-2" data-name="Path 103" class="cls-47" d="M0 0l131.263-.248-.248 132.184-131.263.248z" transform="rotate(-14.152 2515.995 -4242.697)"/><path id="Path_104-2" data-name="Path 104" class="cls-48" d="M0 0l126.994-.24-.24 127.886-126.994.24z" transform="rotate(-14.152 2608.955 -3560.584)"/><path id="Path_105-2" data-name="Path 105" class="cls-49" d="M0 0l140.867-.266-.267 141.856-140.867.266z" transform="rotate(-14.07 2679.015 -2845.252)"/><path id="Path_106-2" data-name="Path 106" class="cls-50" d="M0 0l49.09-.093L49 49.342l-49.09.093z" transform="rotate(-14.07 2928.198 -2360.373)"/><path id="Path_107-2" data-name="Path 107" class="cls-51" d="M0 0l44.821-.085-.085 45.136-44.821.085z" transform="matrix(.97 -.245 .245 .97 498.788 687.315)"/><path id="Path_108-2" data-name="Path 108" class="cls-52" d="M0 0l112.053-.212-.212 112.84-112.053.212z" transform="rotate(-14.153 2985.978 -819.622)"/><path id="Path_109-2" data-name="Path 109" class="cls-53" d="M0 0l46.956-.089-.089 47.289-46.956.089z" transform="rotate(-14.152 3189.623 -273.558)"/><path id="Path_110-2" data-name="Path 110" class="cls-54" d="M0 0l41.62-.079-.079 41.912-41.62.079z" transform="rotate(-14.14 3289.46 407.975)"/><path id="Path_111-2" data-name="Path 111" class="cls-60" d="M0 0l116.322-.22-.295 156.9-116.322.22z" transform="rotate(-14.152 1510.502 -6181.968)"/><path id="Path_112-2" data-name="Path 112" class="cls-34" d="M0 0l120.591-.228-.228 121.438-120.591.228z" transform="rotate(-14.152 1662.68 -5570.714)"/><path id="Path_113-2" data-name="Path 113" class="cls-14" d="M0 0l118.456-.224-.224 119.288-118.456.224z" transform="rotate(-14.153 1752.423 -4878.628)"/><path id="Path_114-2" data-name="Path 114" class="cls-61" d="M0 0l123.792-.234-.234 124.662-123.792.234z" transform="rotate(-14.153 1830.372 -4173.096)"/><path id="Path_115-2" data-name="Path 115" class="cls-63" d="M0 0l99.247-.188-.23 122.512-99.247.188z" transform="rotate(-14.07 869.06 -6186.919)"/><path id="Path_116-2" data-name="Path 116" class="cls-64" d="M0 0l140.867-.266-.267 141.856-140.867.266z" transform="rotate(-14.153 928.071 -5438.229)"/></g></g><g id="Group_7-2" data-name="Group 7" class="cls-4"><g id="Group_5-2" data-name="Group 5" transform="translate(1018.247 297.937)"><path id="Path_117-2" data-name="Path 117" class="cls-5" d="M0 0l103.516-.2-.2 104.243-103.516.2z" transform="rotate(-14.152 5418.72 214.247)"/><path id="Path_118-2" data-name="Path 118" class="cls-6" d="M0 0l37.351-.071-.071 37.613-37.351.071z" transform="rotate(-14.153 4906.76 -1247.494)"/><path id="Path_119-2" data-name="Path 119" class="cls-7" d="M0 0l99.247-.188-.187 99.945-99.247.188z" transform="rotate(-14.07 4864.805 -659.348)"/><path id="Path_120-2" data-name="Path 120" class="cls-8" d="M0 0l96.046-.182-.182 96.72-96.046.182z" transform="rotate(-14.159 4913.325 -203.992)"/><path id="Path_121-2" data-name="Path 121" class="cls-9" d="M0 0l100.314-.19-.19 101.019-100.314.19z" transform="rotate(-14.152 4966.713 261.286)"/><path id="Path_122-2" data-name="Path 122" class="cls-10" d="M0 0l65.1-.123-.123 65.555-65.1.123z" transform="matrix(.97 -.245 .245 .97 629.238 985.146)"/><path id="Path_123-2" data-name="Path 123" class="cls-11" d="M0 0l87.508-.165-.165 88.123-87.508.165z" transform="rotate(-14.153 4298.472 -1531.615)"/><path id="Path_124-2" data-name="Path 124" class="cls-12" d="M0 0l84.307-.16-.16 84.9-84.307.16z" transform="matrix(.97 -.245 .245 .97 397.845 1034.119)"/><path id="Path_125-2" data-name="Path 125" class="cls-13" d="M0 0l108.852-.206-.206 109.616-108.852.206z" transform="rotate(-14.159 4373.214 -574.983)"/><path id="Path_126-2" data-name="Path 126" class="cls-14" d="M0 0l80.038-.151-.151 80.6-80.038.151z" transform="rotate(-14.18 4473.29 -180.681)"/><path id="Path_127-2" data-name="Path 127" class="cls-15" d="M0 0l97.113-.184-.184 97.795-97.113.184z" transform="rotate(-14.153 4509.437 313.646)"/><path id="Path_128-2" data-name="Path 128" class="cls-16" d="M0 0l98.18-.186-.192 102.094-98.18.186z" transform="rotate(-14.14 3186.478 -6474.198)"/><path id="Path_129-2" data-name="Path 129" class="cls-17" d="M0 0l42.687-.081-.081 42.987-42.687.081z" transform="rotate(-14.07 3345.738 -6160.299)"/><path id="Path_130-2" data-name="Path 130" class="cls-18" d="M0 0l18.142-.034-.034 18.269-18.142.034z" transform="rotate(-14.159 3442.56 -5740.348)"/><path id="Path_131-2" data-name="Path 131" class="cls-19" d="M0 0l21.343-.04-.043 21.493-21.343.04z" transform="rotate(-14.093 3510.56 -5301.847)"/><path id="Path_132-2" data-name="Path 132" class="cls-20" d="M0 0l18.142-.034-.034 18.269-18.142.034z" transform="rotate(-14.193 3551.017 -4816.01)"/><path id="Path_133-2" data-name="Path 133" class="cls-21" d="M0 0l42.687-.081-.081 42.987-42.687.081z" transform="rotate(-14.14 3579.452 -4320.63)"/><path id="Path_134-2" data-name="Path 134" class="cls-22" d="M0 0l42.687-.081-.081 42.987-42.687.081z" transform="rotate(-14.135 3638.289 -3864.955)"/><path id="Path_135-2" data-name="Path 135" class="cls-23" d="M0 0l22.411-.042-.042 22.568-22.411.042z" transform="rotate(-14.07 3729.999 -3463.189)"/><path id="Path_136-2" data-name="Path 136" class="cls-24" d="M0 0l96.046-.182-.182 96.72-96.046.182z" transform="rotate(-14.159 3652.44 -2829.173)"/><path id="Path_137-2" data-name="Path 137" class="cls-25" d="M0 0l103.516-.2-.2 104.243-103.516.2z" transform="rotate(-14.153 3696.357 -2354.496)"/><path id="Path_138-2" data-name="Path 138" class="cls-26" d="M0 0l104.583-.2-.2 105.318-104.583.2z" transform="rotate(-14.07 3756.03 -1907.18)"/><path id="Path_139-2" data-name="Path 139" class="cls-27" d="M0 0l102.449-.194-.194 103.168-102.449.194z" transform="rotate(-14.07 3819.15 -1450.088)"/><path id="Path_140-2" data-name="Path 140" class="cls-28" d="M0 0l105.65-.2-.2 106.392-105.65.2z" transform="rotate(-14.159 3864.372 -979.97)"/><path id="Path_141-2" data-name="Path 141" class="cls-29" d="M0 0l73.635-.139-.135 74.152-73.635.139z" transform="rotate(-14.153 3980.616 -596.123)"/><path id="Path_142-2" data-name="Path 142" class="cls-15" d="M0 0l96.046-.182-.182 96.72-96.046.182z" transform="rotate(-14.152 3996.559 -92.168)"/><path id="Path_143-2" data-name="Path 143" class="cls-30" d="M0 0l104.583-.2-.2 105.318-104.583.2z" transform="rotate(-14.159 4037.015 384.61)"/><path id="Path_144-2" data-name="Path 144" class="cls-31" d="M0 0l97.113-.184-.186 98.87-97.113.184z" transform="rotate(-14.159 2727.893 -6413.324)"/><path id="Path_145-2" data-name="Path 145" class="cls-32" d="M0 0l93.911-.178-.178 94.571-93.911.177z" transform="rotate(-14.07 2794.46 -5986.882)"/><path id="Path_146-2" data-name="Path 146" class="cls-33" d="M0 0l64.031-.121-.121 64.48-64.031.121z" transform="rotate(-14.159 2904.9 -5578.091)"/><path id="Path_147-2" data-name="Path 147" class="cls-34" d="M0 0l82.172-.155-.155 82.75-82.172.155z" transform="rotate(-14.07 2929.78 -5100.51)"/><path id="Path_148-2" data-name="Path 148" class="cls-35" d="M0 0l73.635-.139-.135 74.152-73.635.139z" transform="rotate(-14.18 2995.83 -4638.55)"/><path id="Path_149-2" data-name="Path 149" class="cls-36" d="M0 0l77.9-.147-.143 78.447-77.9.147z" transform="rotate(-14.153 3051.554 -4181.552)"/><path id="Path_150-2" data-name="Path 150" class="cls-37" d="M0 0l93.911-.178-.178 94.571-93.911.178z" transform="rotate(-14.159 3081.5 -3685.944)"/><path id="Path_151-2" data-name="Path 151" class="cls-38" d="M0 0l88.576-.168-.168 89.2-88.576.168z" transform="rotate(-14.159 3146.441 -3243.561)"/><path id="Path_152-2" data-name="Path 152" class="cls-39" d="M0 0l87.508-.165-.165 88.123-87.508.165z" transform="rotate(-14.07 3213.35 -2804.047)"/><path id="Path_153-2" data-name="Path 153" class="cls-40" d="M0 0l69.366-.131-.131 69.854-69.366.131z" transform="rotate(-14.152 3297.745 -2376.67)"/><path id="Path_154-2" data-name="Path 154" class="cls-41" d="M0 0l67.232-.127-.127 67.7-67.232.127z" transform="rotate(-14.14 3361.972 -1926.284)"/><path id="Path_155-2" data-name="Path 155" class="cls-41" d="M0 0l66.165-.125L66.04 66.5l-66.165.13z" transform="rotate(-14.152 3416.765 -1468.642)"/><path id="Path_156-2" data-name="Path 156" class="cls-42" d="M0 0l88.576-.168-.168 89.2-88.576.168z" transform="rotate(-14.159 3434.807 -962.345)"/><path id="Path_157-2" data-name="Path 157" class="cls-27" d="M0 0l100.314-.19-.19 101.019-100.314.19z" transform="rotate(-14.153 3470.673 -481.506)"/><path id="Path_158-2" data-name="Path 158" class="cls-43" d="M0 0l102.449-.194-.194 103.168-102.449.194z" transform="rotate(-14.07 3532.934 -25.098)"/><path id="Path_159-2" data-name="Path 159" class="cls-44" d="M0 0l105.65-.2-.2 106.392-105.65.2z" transform="rotate(-14.152 3579.812 444.367)"/><path id="Path_160-2" data-name="Path 160" class="cls-45" d="M0 0l80.038-.151-.151 80.6-80.038.151z" transform="matrix(.97 -.245 .245 .97 1635.748 368.735)"/><path id="Path_161-2" data-name="Path 161" class="cls-40" d="M0 0l70.434-.133-.134 70.928-70.434.133z" transform="rotate(-14.159 2375.383 -5963.783)"/><path id="Path_162-2" data-name="Path 162" class="cls-10" d="M0 0l64.031-.121-.121 64.48-64.031.121z" transform="rotate(-14.153 2445.432 -5524.014)"/><path id="Path_163-2" data-name="Path 163" class="cls-40" d="M0 0l69.366-.131-.131 69.853-69.366.131z" transform="matrix(.97 -.245 .245 .97 1312.388 455.613)"/><path id="Path_164-2" data-name="Path 164" class="cls-46" d="M0 0l85.374-.161-.161 85.974-85.374.161z" transform="rotate(-14.07 2523.715 -4577.015)"/><path id="Path_165-2" data-name="Path 165" class="cls-47" d="M0 0l86.441-.163-.163 87.048-86.441.163z" transform="rotate(-14.07 2577.04 -4119.319)"/><path id="Path_166-2" data-name="Path 166" class="cls-48" d="M0 0l83.24-.157-.157 83.824-83.24.157z" transform="rotate(-14.153 2637.592 -3654.446)"/><path id="Path_167-2" data-name="Path 167" class="cls-49" d="M0 0l92.844-.176-.176 93.5-92.844.176z" transform="matrix(.97 -.245 .245 .97 858.742 558.839)"/><path id="Path_168-2" data-name="Path 168" class="cls-50" d="M0 0l32.015-.06-.06 32.24-32.015.06z" transform="rotate(-14.14 2851.104 -2861.315)"/><path id="Path_169-2" data-name="Path 169" class="cls-51" d="M0 0l29.881-.056-.056 30.091-29.881.056z" transform="rotate(-14.104 2918.763 -2421.304)"/><path id="Path_170-2" data-name="Path 170" class="cls-52" d="M0 0l73.635-.139-.135 74.152-73.635.139z" transform="rotate(-14.153 2887.561 -1852.803)"/><path id="Path_171-2" data-name="Path 171" class="cls-53" d="M0 0l30.948-.059-.058 31.166-30.948.059z" transform="rotate(-14.159 3019.319 -1492.705)"/><path id="Path_172-2" data-name="Path 172" class="cls-54" d="M0 0l27.747-.052-.052 27.941-27.747.052z" transform="rotate(-14.07 3087.856 -1052.395)"/><path id="Path_173-2" data-name="Path 173" class="cls-55" d="M0 0l7.47-.014-.016 8.6-7.47.014z" transform="rotate(-14.217 3164.823 -629.135)"/><path id="Path_174-2" data-name="Path 174" class="cls-56" d="M0 0l28.814-.054-.054 29.016-28.814.054z" transform="rotate(-14.14 3200.706 -129.644)"/><path id="Path_175-2" data-name="Path 175" class="cls-57" d="M0 0l30.948-.059-.058 31.166-30.948.059z" transform="matrix(.97 -.245 .245 .97 17.391 805.374)"/><path id="Path_176-2" data-name="Path 176" class="cls-58" d="M0 0l94.979-.18-.179 95.646-94.979.18z" transform="rotate(-14.152 1817.215 -6314.876)"/><path id="Path_177-2" data-name="Path 177" class="cls-59" d="M0 0l90.71-.172-.172 91.347-90.71.172z" transform="rotate(-14.159 1881.8 -5863.971)"/><path id="Path_178-2" data-name="Path 178" class="cls-60" d="M0 0l102.449-.194-.194 103.168-102.449.194z" transform="rotate(-14.153 1917.57 -5380.726)"/><path id="Path_179-2" data-name="Path 179" class="cls-34" d="M0 0l78.971-.149-.149 79.525-78.971.149z" transform="rotate(-14.159 2016.63 -4975.455)"/><path id="Path_180-2" data-name="Path 180" class="cls-14" d="M0 0l77.9-.147-.144 78.447-77.9.147z" transform="rotate(-14.159 2072.892 -4523.75)"/><path id="Path_181-2" data-name="Path 181" class="cls-61" d="M0 0l82.173-.155-.155 82.75-82.173.155z" transform="rotate(-14.159 2123.272 -4057.764)"/><path id="Path_182-2" data-name="Path 182" class="cls-62" d="M0 0l101.382-.192-.2 108.542-101.382.192z" transform="rotate(-14.159 1330.82 -6224.55)"/><path id="Path_183-2" data-name="Path 183" class="cls-32" d="M0 0l94.979-.18-.179 95.646-94.979.18z" transform="rotate(-14.07 1411.05 -5815.937)"/><path id="Path_184-2" data-name="Path 184" class="cls-63" d="M0 0l80.038-.151-.151 80.6-80.038.151z" transform="rotate(-14.152 1495.607 -5374.414)"/><path id="Path_185-2" data-name="Path 185" class="cls-64" d="M0 0l92.844-.176-.176 93.5-92.844.176z" transform="rotate(-14.159 1533.402 -4890.391)"/><path id="Path_186-2" data-name="Path 186" class="cls-65" d="M0 0l100.315-.19-.2 106.392-100.315.19z" transform="rotate(-14.159 875.738 -6173.118)"/></g><g id="Group_6-2" data-name="Group 6" class="cls-66" transform="translate(1005.188 265.934)"><path id="Path_187-2" data-name="Path 187" class="cls-6" d="M0 0l55.493-.1-.1 55.883-55.493.1z" transform="rotate(-14.14 842.871 -6309.785)"/><path id="Path_188-2" data-name="Path 188" class="cls-10" d="M0 0l99.247-.188-.187 99.945-99.247.188z" transform="rotate(-14.152 1640.118 -4904.495)"/><path id="Path_189-2" data-name="Path 189" class="cls-11" d="M0 0l133.4-.252-.252 134.334-133.4.252z" transform="rotate(-14.159 1488.52 -5518.98)"/><path id="Path_190-2" data-name="Path 190" class="cls-12" d="M0 0l108.852-.206-.242 128.96-108.852.206z" transform="rotate(-14.153 1414.614 -6225.763)"/><path id="Path_191-2" data-name="Path 191" class="cls-18" d="M0 0l26.679-.05-.05 26.867-26.679.05z" transform="matrix(.97 -.245 .245 .97 0 786.205)"/><path id="Path_192-2" data-name="Path 192" class="cls-19" d="M0 0l32.015-.061-.061 32.24-32.015.061z" transform="rotate(-14.193 3060.286 -291.15)"/><path id="Path_193-2" data-name="Path 193" class="cls-20" d="M0 0l26.679-.05-.05 26.867-26.679.05z" transform="rotate(-14.14 2994.098 -995.05)"/><path id="Path_194-2" data-name="Path 194" class="cls-21" d="M0 0l64.03-.121-.121 64.48-64.03.121z" transform="rotate(-14.07 2842.013 -1610.105)"/><path id="Path_195-2" data-name="Path 195" class="cls-22" d="M0 0l65.1-.123-.123 65.555-65.1.123z" transform="rotate(-14.07 2751.595 -2302.607)"/><path id="Path_196-2" data-name="Path 196" class="cls-23" d="M0 0l34.15-.064-.064 34.389-34.15.064z" transform="rotate(-14.07 2717.775 -3067.868)"/><path id="Path_197-2" data-name="Path 197" class="cls-24" d="M0 0l145.136-.275-.275 146.155-145.136.275z" transform="rotate(-14.159 2431.302 -3496.566)"/><path id="Path_198-2" data-name="Path 198" class="cls-25" d="M0 0l156.875-.3-.3 157.976-156.875.3z" transform="rotate(-14.152 2324.27 -4166.286)"/><path id="Path_199-2" data-name="Path 199" class="cls-26" d="M0 0l159.009-.3-.3 160.126-159.009.3z" transform="rotate(-14.153 2234.612 -4855.7)"/><path id="Path_200-2" data-name="Path 200" class="cls-27" d="M0 0l155.808-.295-.295 156.9-155.808.295z" transform="rotate(-14.153 2148.257 -5555.915)"/><path id="Path_201-2" data-name="Path 201" class="cls-28" d="M0 0l124.86-.236-.3 161.2L-.3 161.2z" transform="rotate(-14.153 2055.108 -6240.006)"/><path id="Path_202-2" data-name="Path 202" class="cls-33" d="M0 0l86.441-.164-.182 96.72-86.441.164z" transform="rotate(-14.159 3731.285 425.32)"/><path id="Path_203-2" data-name="Path 203" class="cls-34" d="M0 0l124.859-.236-.236 125.736-124.859.236z" transform="rotate(-14.07 3611.662 -168.75)"/><path id="Path_204-2" data-name="Path 204" class="cls-35" d="M0 0l110.986-.21-.21 111.766-110.986.21z" transform="rotate(-14.152 3540.48 -889.77)"/><path id="Path_205-2" data-name="Path 205" class="cls-36" d="M0 0l118.456-.224-.224 119.288-118.456.224z" transform="rotate(-14.153 3439.382 -1564.957)"/><path id="Path_206-2" data-name="Path 206" class="cls-37" d="M0 0l141.934-.268-.268 142.931-141.934.268z" transform="rotate(-14.152 3308.278 -2204.516)"/><path id="Path_207-2" data-name="Path 207" class="cls-38" d="M0 0l134.464-.254-.254 135.408-134.464.254z" transform="rotate(-14.153 3237.2 -2918.334)"/><path id="Path_208-2" data-name="Path 208" class="cls-39" d="M0 0l132.33-.25-.25 133.259-132.33.25z" transform="rotate(-14.153 3151.29 -3614.298)"/><path id="Path_209-2" data-name="Path 209" class="cls-40" d="M0 0l105.65-.2-.2 106.392-105.65.2z" transform="rotate(-14.152 3111.531 -4369.738)"/><path id="Path_210-2" data-name="Path 210" class="cls-41" d="M0 0l102.449-.194-.194 103.168-102.449.194z" transform="rotate(-14.152 3033.974 -5071.052)"/><path id="Path_211-2" data-name="Path 211" class="cls-41" d="M0 0l101.382-.192-.192 102.092-101.382.192z" transform="rotate(-14.07 2943.788 -5782.042)"/><path id="Path_212-2" data-name="Path 212" class="cls-42" d="M0 0l112.053-.212L111.8 135.2l-112.053.212z" transform="rotate(-14.153 2799.535 -6382.117)"/><path id="Path_213-2" data-name="Path 213" class="cls-10" d="M0 0l86.441-.163-.184 97.795-86.441.163z" transform="rotate(-14.152 4430.546 337.372)"/><path id="Path_214-2" data-name="Path 214" class="cls-40" d="M0 0l105.65-.2-.2 106.392-105.65.2z" transform="rotate(-14.153 4333.7 -294.431)"/><path id="Path_215-2" data-name="Path 215" class="cls-46" d="M0 0l129.128-.244-.244 130.035-129.128.244z" transform="rotate(-14.152 4207.056 -934.469)"/><path id="Path_216-2" data-name="Path 216" class="cls-47" d="M0 0l131.263-.248-.248 132.184-131.263.248z" transform="rotate(-14.152 4113.592 -1620.857)"/><path id="Path_217-2" data-name="Path 217" class="cls-48" d="M0 0l126.994-.24-.24 127.886-126.994.24z" transform="rotate(-14.153 4035.335 -2324.758)"/><path id="Path_218-2" data-name="Path 218" class="cls-49" d="M0 0l140.867-.266-.267 141.856-140.867.266z" transform="rotate(-14.07 3928.841 -2999.04)"/><path id="Path_219-2" data-name="Path 219" class="cls-50" d="M0 0l49.09-.093L49 49.342l-49.09.093z" transform="rotate(-14.159 3998.449 -3888.957)"/><path id="Path_220-2" data-name="Path 220" class="cls-51" d="M0 0l44.821-.085-.085 45.136-44.821.085z" transform="rotate(-14.153 3917.551 -4591.347)"/><path id="Path_221-2" data-name="Path 221" class="cls-52" d="M0 0l112.053-.212-.212 112.84-112.053.212z" transform="rotate(-14.07 3714 -5149.402)"/><path id="Path_222-2" data-name="Path 222" class="cls-53" d="M0 0l46.956-.089-.089 47.289-46.956.089z" transform="rotate(-14.152 3739.233 -5975.33)"/><path id="Path_223-2" data-name="Path 223" class="cls-54" d="M0 0l41.62-.079-.079 41.912-41.62.079z" transform="rotate(-14.159 3660.496 -6671.867)"/><path id="Path_224-2" data-name="Path 224" class="cls-60" d="M0 0l116.322-.22-.295 156.9-116.322.22z" transform="rotate(-14.159 5008.696 267.082)"/><path id="Path_225-2" data-name="Path 225" class="cls-34" d="M0 0l120.591-.228-.228 121.438-120.591.228z" transform="rotate(-14.07 5019.508 -351.897)"/><path id="Path_226-2" data-name="Path 226" class="cls-14" d="M0 0l118.456-.224-.224 119.288-118.456.224z" transform="rotate(-14.07 4932.595 -1053.308)"/><path id="Path_227-2" data-name="Path 227" class="cls-61" d="M0 0l123.792-.234-.234 124.662-123.792.234z" transform="rotate(-14.159 4822.819 -1721.568)"/><path id="Path_228-2" data-name="Path 228" class="cls-63" d="M0 0l99.247-.188-.23 122.512-99.247.188z" transform="rotate(-14.159 5774.586 172.342)"/><path id="Path_229-2" data-name="Path 229" class="cls-64" d="M0 0l140.867-.266-.267 141.856-140.867.266z" transform="rotate(-14.153 5670.902 -384.304)"/></g></g></g></g></g></g></svg>