<svg xmlns="http://www.w3.org/2000/svg" viewBox="0 0 457 109">
  <defs>
    <style>
      .cls-1, .cls-2 {
        fill: #474747;
      }

      .cls-1 {
        font-size: 60px;
        font-family: Rockwell;
        letter-spacing: 0.256em;
      }

      .cls-2 {
        font-size: 18px;
        font-family: Montserrat-Regular, Montserrat;
      }

      .cls-3 {
        fill: #142a3b;
      }

      .cls-4 {
        fill: #020403;
        opacity: 0.35;
      }

      .cls-5 {
        fill: #82a5f6;
      }

      .cls-6 {
        fill: #fff;
      }

      .cls-7 {
        fill: #6b8fe3;
      }

      .cls-8 {
        fill: #6a569f;
      }
    </style>
  </defs>
  <g id="Group_49" data-name="Group 49" transform="translate(-70 -20)">
    <text id="CHATER" class="cls-1" transform="translate(208 95)"><tspan x="0" y="0">CHATER</tspan></text>
    <text id="Online_free_chat" data-name="Online free chat" class="cls-2" transform="translate(381 117)"><tspan x="0" y="0">Online free chat</tspan></text>
    <g id="logo" transform="translate(70 20)">
      <path id="path-1" class="cls-3" d="M141.058,142.607c-2.267.5-18.816-7.984-21.262-7.984-15.659,0-28.336-10.524-28.336-23.5s12.692-23.5,28.336-23.5,28.336,10.524,28.336,23.5c0,7.417-4.151,14.039-10.634,18.344-.706.467-.7,1.372-.3,2.486Z" transform="translate(-47.111 -44.062)"/>
      <path id="path-2" class="cls-4" d="M119.8,87.62c-15.659,0-28.336,10.524-28.336,23.5a21.446,21.446,0,0,0,7.84,16.191,4.4,4.4,0,0,1,.88-.129c21.063,0,38.776-11.787,44.145-27.839C139.4,92.348,130.276,87.62,119.8,87.62Z" transform="translate(-47.111 -44.062)"/>
      <path id="path-3" class="cls-5" d="M13.709,88.856c3.659.78,30.4-12.925,34.356-12.925,25.3,0,45.815-17,45.815-37.976S73.369,0,48.065,0,2.25,17.007,2.25,37.98c0,11.991,6.711,22.684,17.181,29.649,1.143.756,1.128,2.217.5,4.027Z" transform="translate(-2.25 0)"/>
      <path id="path-4" class="cls-6" d="M24.184,48.825a2.7,2.7,0,0,1-2.714-2.689c0-14.516,14.009-26.348,31.234-26.348a2.689,2.689,0,1,1,0,5.374c-14.233,0-25.811,9.4-25.811,20.954a2.7,2.7,0,0,1-2.709,2.709Z" transform="translate(-11.915 -9.949)"/>
      <path id="path-5" class="cls-4" d="M91.935,22.17a33.5,33.5,0,0,1,8.123,21.58c0,20.974-20.506,37.98-45.81,37.98-2.774.01-16.748,6.721-26.1,10.45l-2.819,7.8c3.659.78,30.4-12.925,34.356-12.925,25.3,0,45.815-17,45.815-37.976C105.487,38.585,100.3,29.045,91.935,22.17Z" transform="translate(-13.856 -11.149)"/>
      <path id="path-6" class="cls-7" d="M72.817,217.148c1.357,0,2.456-.467,2.456-1.044s-1.1-1.044-2.456-1.044H65.3c-1.352,0-2.451.467-2.451,1.044s1.1,1.044,2.451,1.044Z" transform="translate(-32.724 -108.148)"/>
      <path id="path-7" class="cls-7" d="M26.994,185.68h2.232a1.044,1.044,0,0,1,0,2.018h-.1a1.044,1.044,0,0,0,0,2.018h4.8a1.044,1.044,0,0,1,0,2.018H16.36a1.044,1.044,0,0,1,0-2.018h1.332a1.044,1.044,0,0,0,0-2.018H11.354a1.044,1.044,0,0,1,0-2.018Z" transform="translate(-6.438 -93.374)"/>
      <path id="path-8" class="cls-7" d="M8.122,196.577c.532,0,.964-.318.964-.706s-.433-.7-.964-.7H5.164c-.532,0-.964.313-.964.7s.433.706.964.706Z" transform="translate(-3.231 -98.146)"/>
      <path id="path-9" class="cls-8" d="M135.334,201h5.682c1.094,0,1.988.671,1.988,1.491s-.885,1.491-1.988,1.491h-.268c-1.094,0-1.989.671-1.989,1.491s.885,1.491,1.989,1.491h12.2c1.094,0,1.988.671,1.988,1.491s-.89,1.491-1.988,1.491H108.3c-1.1,0-1.989-.671-1.989-1.491s.885-1.491,1.989-1.491h3.38c1.094,0,1.988-.671,1.988-1.491s-.89-1.491-1.988-1.491H95.569c-1.094,0-1.989-.671-1.989-1.491S94.47,201,95.569,201h39.77Z" transform="translate(-48.177 -101.078)"/>
    </g>
  </g>
</svg>
