<svg xmlns="http://www.w3.org/2000/svg" xmlns:xlink="http://www.w3.org/1999/xlink" viewBox="0 0 149.795 173.913">
  <defs>
    <style>
      .cls-1 {
        fill: #195597;
      }

      .cls-2 {
        fill: #e7eced;
      }

      .cls-3 {
        filter: url(#Path_244);
      }
    </style>
    <filter id="Path_244" x="0" y="0" width="149.795" height="173.913" filterUnits="userSpaceOnUse">
      <feOffset dy="3" input="SourceAlpha"/>
      <feGaussianBlur stdDeviation="12.5" result="blur"/>
      <feFlood flood-opacity="0.502"/>
      <feComposite operator="in" in2="blur"/>
      <feComposite in="SourceGraphic"/>
    </filter>
  </defs>
  <g id="Group_48" data-name="Group 48" transform="translate(-2859.246 -2189.35)">
    <rect id="Rectangle_529" data-name="Rectangle 529" class="cls-1" width="116.5" height="116.5" rx="10" transform="translate(2876 2215)"/>
    <g class="cls-3" transform="matrix(1, 0, 0, 1, 2859.25, 2189.35)">
      <path id="Path_244-2" data-name="Path 244" class="cls-2" d="M34.414,85.826l-17.38,9.48a15.62,15.62,0,0,0-2.789,1.985,58.213,58.213,0,0,0,74.8.193,15.42,15.42,0,0,0-3.064-2.053l-18.611-9.3a7.1,7.1,0,0,1-3.924-6.348v-7.3A28.109,28.109,0,0,0,65.2,70.213a42.825,42.825,0,0,0,5.785-11.659,5.846,5.846,0,0,0,4.146-5.561V45.2a5.819,5.819,0,0,0-1.948-4.319V29.611S75.5,12.077,51.753,12.077,30.322,29.611,30.322,29.611V40.879A5.811,5.811,0,0,0,28.374,45.2v7.795a5.844,5.844,0,0,0,2.695,4.9,38.68,38.68,0,0,0,7.047,14.58V79.6A7.1,7.1,0,0,1,34.414,85.826Z" transform="translate(23.26 22.42)"/>
    </g>
  </g>
</svg>
