<svg xmlns="http://www.w3.org/2000/svg" viewBox="3488 891 1928 937"><defs><style>.a{fill:#fff;stroke:#707070}.c{opacity:.3}.d{clip-path:url(#b)}.e{fill:#005395}.f{fill:#50c6f2}.g{fill:#006ab2}.h{fill:#0076bf}.i{fill:#0066ae}.j{fill:#00afed}.k{fill:#008ed3}.l{fill:#0097db}.m{fill:#192d79}.n{fill:#00a5e8}.o{fill:#0072bb}.p{fill:#0064ac}.q{fill:#00bdf0}.r{fill:#6bcbf3}.s{fill:#5dc8f3}.t{fill:#64caf3}.u{fill:#00bbf0}.v{fill:#00baf0}.w{fill:#4ec6f2}.x{fill:#0074bc}.y{fill:#0051a3}.z{fill:#004d99}.aa{fill:#0059a9}.ab{fill:#104698}.ac{fill:#00abed}.ad{fill:#004e9a}.ae{fill:#006ab5}.af{fill:#007ac2}.ag{fill:#00b0ee}.ah{fill:#00a2e5}.ai{fill:#00a0e2}.aj{fill:#09d}.ak{fill:#007bc3}.al{fill:#008ad0}.am{fill:#0088cf}.an{fill:#00aced}.ao{fill:#00aeed}.ap{fill:#0081c9}.aq{fill:#0053a4}.ar{fill:#004387}.as{fill:#00a6e8}.at{fill:#0092d7}.au{fill:#0091d6}.av{fill:#0098dc}.aw{fill:#007fc5}.ax{fill:#39c3f2}.ay{fill:#20c0f1}.az{fill:#00a3e6}.ba{fill:#10c0f1}.bb{fill:#1cc0f1}.bc{fill:#8dd4f5}.bd{fill:#34c2f1}.be{fill:#3ec3f2}.bf{fill:#007cc3}.bg{fill:#0088ce}.bh{fill:#0054a5}.bi{fill:#00a0e3}.bj{fill:#003470}.bk{fill:#009ce0}.bl{fill:#0080c7}.bm{fill:#004182}.bn{opacity:.4}</style><clipPath id="a"><path class="a" transform="translate(1171 2593)" d="M0 0h1928v353H0z"/></clipPath><clipPath id="b"><path d="M0 0h1920v1161.192H0z"/></clipPath><clipPath id="d"><path class="a" transform="translate(1178 823)" d="M0 0h1920v400H0z"/></clipPath></defs><g transform="translate(2317 -1118)" opacity=".5" clip-path="url(#a)"><g class="c"><g class="d"><path class="e" d="M1892.14 1211.117l100.325-25.505 25.295 101.128-100.325 25.505z"/><path class="f" d="M1630.51 1429.817l36.199-9.205 9.132 36.488-36.199 9.206z"/><path class="g" d="M1702.909 1379.267l96.189-24.448 24.255 96.958-96.19 24.447z"/><path class="h" d="M1814.059 1352.071l93.087-23.66 23.47 93.83-93.086 23.66z"/><path class="i" d="M1921.333 1322.591l97.223-24.71 24.514 98-97.223 24.71z"/><path class="j" d="M1421.493 1585.368l63.098-16.023 15.895 63.6-63.098 16.022z"/><path class="k" d="M1517.325 1549.845l84.809-21.567 21.395 85.487-84.809 21.566z"/><path class="l" d="M1629.869 1523.425l81.71-20.767 20.603 82.362-81.71 20.767z"/><path class="m" d="M1724.073 1486.086l105.495-26.826 26.614 106.336-105.495 26.826z"/><path class="n" d="M1851.021 1469.28l77.57-19.725 19.569 78.189-77.57 19.724z"/><path class="o" d="M1950.48 1435.208l94.12-23.924 23.734 94.872-94.12 23.924z"/><path class="p" d="M331.868 1962.109l95.19-24.136 24.724 99.078-95.19 24.136z"/><path class="q" d="M474.761 1956.395l41.37-10.52 10.437 41.7-41.37 10.52z"/><path class="r" d="M598.859 1936.979l17.583-4.469 4.434 17.723-17.583 4.469z"/><path class="s" d="M707.418 1908.288l20.687-5.253 5.208 20.853-20.686 5.252z"/><path class="t" d="M818.595 1881.108l17.59-4.46 4.424 17.73-17.59 4.46z"/><path class="u" d="M914.17 1844.539l41.37-10.52 10.437 41.7-41.37 10.52z"/><path class="v" d="M1022.979 1816.813l41.371-10.516 10.433 41.702-41.372 10.516z"/><path class="w" d="M1145.531 1795.633l21.72-5.523 5.48 21.893-21.72 5.523z"/><path class="x" d="M1211.426 1741.123l93.12-23.612 23.423 93.863-93.12 23.612z"/><path class="y" d="M1316.358 1711.091l100.362-25.452 25.241 101.165-100.362 25.452z"/><path class="z" d="M1424.929 1682.3l101.397-25.712 25.503 102.207-101.396 25.712z"/><path class="aa" d="M1536.098 1655.176l99.292-25.236 25.036 100.084-99.292 25.236z"/><path class="ab" d="M1644.568 1626.323l102.391-26.037 25.832 103.208-102.392 26.038z"/><path class="ac" d="M1773.799 1610.153l71.366-18.14 18 71.935-71.366 18.14z"/><path class="o" d="M1869.445 1573.501l93.084-23.67 23.482 93.826-93.083 23.67z"/><path class="ad" d="M1974.201 1542.574l101.397-25.712 25.503 102.207-101.396 25.712z"/><path class="ae" d="M359.82 2073.662l94.12-23.924 23.995 95.915-94.12 23.923z"/><path class="af" d="M471.185 2047.403l91.05-23.087 22.903 91.777-91.05 23.086z"/><path class="ag" d="M599.433 2031.375l62.08-15.805 15.68 62.575-62.08 15.805z"/><path class="ah" d="M697.629 1996.416l79.669-20.2 20.04 80.305-79.668 20.2z"/><path class="ai" d="M812.638 1971.539l71.364-18.147 18.008 71.932-71.364 18.147z"/><path class="aj" d="M919.957 1942.02l75.527-19.15 19.002 76.128-75.527 19.15z"/><path class="ak" d="M1019.689 1908.893l91.05-23.087 22.903 91.777-91.05 23.086z"/><path class="al" d="M1133.127 1882.138l85.847-21.82 21.648 86.533-85.846 21.82z"/><path class="am" d="M1243.237 1855.215l84.811-21.557 21.388 85.489-84.812 21.556z"/><path class="an" d="M1364.606 1833.232l67.229-17.087 16.952 67.766-67.23 17.087z"/><path class="ao" d="M1475.704 1806.103l65.184-16.595 16.463 65.7-65.184 16.595zm110.115-26.902l64.15-16.266 16.135 64.657-64.149 16.27z"/><path class="ap" d="M1682.661 1743.394l85.844-21.83 21.657 86.531-85.844 21.83z"/><path class="aa" d="M1784.758 1710.636l97.221-24.723 24.526 97.997-97.22 24.723z"/><path class="aq" d="M1893.264 1681.967l99.292-25.238 25.038 100.084-99.292 25.238z"/><path class="ar" d="M2000.955 1653.494l102.395-26.025 25.818 103.212-102.395 26.025z"/><path class="as" d="M397.101 2191.747l77.572-19.717 19.56 78.19-77.57 19.717z"/><path class="an" d="M513.162 2166.72l68.289-17.315 17.177 68.838-68.288 17.315z"/><path class="j" d="M627.237 2142.126l62.058-15.773 15.648 62.553-62.058 15.773z"/><path class="an" d="M733.118 2111.827l67.253-17.122 16.987 67.79-67.253 17.122z"/><path class="at" d="M833.911 2078.325l82.743-21.031 20.866 83.404-82.743 21.03z"/><path class="au" d="M942.53 2049.627l83.808-21.25 21.082 84.477-83.808 21.25z"/><path class="av" d="M1053.874 2023.432l80.675-20.505 20.344 81.318-80.675 20.505z"/><path class="aw" d="M1158.381 1991.372l89.983-22.87 22.69 90.705-89.983 22.87z"/><path class="ax" d="M1304.65 1986.284l31.027-7.89 7.828 31.275-31.028 7.89z"/><path class="ay" d="M1415.846 1959.077l28.97-7.376 7.318 29.202-28.971 7.376z"/><path class="az" d="M1499.475 1914.447l71.366-18.14 18 71.935-71.366 18.14z"/><path class="ba" d="M1635.515 1903.155l29.997-7.614 7.554 30.236-29.997 7.614z"/><path class="bb" d="M1746.759 1875.913l26.902-6.82 6.767 27.115-26.902 6.82z"/><path class="bc" d="M1868.182 1854.968l7.24-1.838 1.824 7.299-7.24 1.838z"/><path class="bd" d="M1966.502 1820.026l27.926-7.097 7.042 28.148-27.926 7.098z"/><path class="be" d="M2073.861 1791.475l29.998-7.61 7.55 30.236-29.997 7.61z"/><path class="bf" d="M415.825 2297.12l92.052-23.396 23.212 92.787-92.053 23.396z"/><path class="bg" d="M528.249 2270.666l87.947-22.39 22.213 88.648-87.947 22.39z"/><path class="bh" d="M630.304 2237.963l99.292-25.238 25.038 100.084-99.292 25.238z"/><path class="ah" d="M754.476 2218.631l76.565-19.492 19.34 77.175-76.566 19.493z"/><path class="n" d="M865.579 2191.398l75.497-19.198 19.05 76.1-75.497 19.197z"/><path class="bi" d="M972.793 2161.918l79.639-20.25 20.091 80.273-79.639 20.251z"/><path class="bj" d="M442.049 2401.2l98.255-24.986 26.357 105.294-98.255 24.985z"/><path class="af" d="M553.435 2379.805l92.058-23.376 23.191 92.79-92.057 23.377z"/><path class="bk" d="M672.356 2357.332l77.6-19.676 19.52 78.22-77.6 19.675z"/><path class="bl" d="M774.454 2324.716l89.983-22.87 22.69 90.705-89.983 22.87z"/><path class="bm" d="M470.015 2512.838l97.221-24.723 25.831 103.21-97.221 24.722z"/><g class="bn"><path class="f" d="M507.464 2594.922l54.837-13.904 13.794 55.275-54.837 13.904z"/><path class="j" d="M772.617 2325.722l96.189-24.448 24.255 96.958-96.19 24.447z"/><path class="k" d="M585.55 2356.134l129.337-32.794 32.533 130.365-129.337 32.794z"/><path class="l" d="M440.552 2394.862l105.498-26.815 31.297 125.104-105.497 26.816z"/><path class="r" d="M2109.382 1844.608l25.866-6.586 6.533 26.074-25.866 6.585z"/><path class="s" d="M1939.311 1885.197l31.028-7.887 7.824 31.277-31.029 7.886z"/><path class="t" d="M1775.529 1929.705l25.866-6.585 6.534 26.073-25.866 6.585z"/><path class="u" d="M1585.952 1958.43l62.056-15.78 15.656 62.55-62.057 15.78z"/><path class="v" d="M1419.441 2000.41l63.117-16.004 15.876 63.619-63.117 16.003z"/><path class="w" d="M1270.264 2054.398l33.1-8.406 8.337 33.363-33.1 8.406z"/><path class="x" d="M1036.653 2056.694l140.66-35.769 35.484 141.782-140.66 35.77z"/><path class="y" d="M862.581 2094.897l152.04-38.649 38.336 153.254-152.04 38.65z"/><path class="z" d="M694.745 2135.971l154.11-39.17 38.861 155.338-154.11 39.17z"/><path class="aa" d="M529.789 2179.618l151.007-38.383 38.077 152.21-151.006 38.383z"/><path class="ab" d="M394.304 2211.381l121.012-30.759 39.125 156.38-121.013 30.76z"/><path class="ag" d="M2024.906 1650.916l83.775-21.304 23.482 93.827-83.774 21.303z"/><path class="ah" d="M1840.809 1683.048l121.013-30.757 30.512 121.978-121.013 30.757z"/><path class="ai" d="M1682.314 1730.57l107.566-27.34 27.123 108.426-107.566 27.34z"/><path class="aj" d="M1510.804 1770.437l114.848-29.12 28.889 115.763-114.848 29.121z"/><path class="ak" d="M1330.213 1804.663l137.56-34.964 34.689 138.658-137.56 34.964z"/><path class="al" d="M1167.849 1849.856l130.32-33.124 32.863 131.36-130.32 33.124z"/><path class="am" d="M1002.656 1892.467l128.249-32.612 32.354 129.272-128.248 32.612z"/><path class="an" d="M851.974 1944.773l102.395-26.025 25.818 103.212-102.395 26.025z"/><path class="ao" d="M686.971 1988.373l99.29-25.249 25.047 100.082-99.289 25.248zm-166.292 42.947l98.294-24.923 24.724 99.076-98.294 24.923z"/><path class="ap" d="M355.616 2055.666l108.64-27.547 32.795 131.412-108.64 27.546z"/><path class="j" d="M1982.473 1483.336l83.778-21.292 23.732 94.872-83.778 21.292z"/><path class="an" d="M1810.801 1522.237l102.394-26.027 25.82 103.212-102.394 26.027z"/><path class="at" d="M1630.332 1556.481l125.145-31.823 31.572 126.144-125.145 31.823z"/><path class="au" d="M1461.577 1597.794l127.219-32.334 32.077 128.233-127.218 32.334z"/><path class="av" d="M1297.625 1641.224l123.081-31.282 31.035 124.063-123.081 31.282z"/><path class="aw" d="M1122.511 1679.731l136.576-34.63 34.354 137.666-136.576 34.63z"/><path class="ax" d="M1011.676 1755.078l47.595-12.068 11.974 47.974-47.594 12.068z"/><path class="ay" d="M846.687 1798.724l43.456-11.064 10.975 43.803-43.455 11.064z"/><path class="az" d="M638.942 1816.638l108.6-27.604 27.385 109.467-108.6 27.604z"/><path class="ba" d="M511.586 1882.954l45.51-11.567 11.475 45.876-45.51 11.567z"/><path class="bb" d="M347.899 1927.359l40.34-10.244 10.162 40.661-40.34 10.244z"/><path class="bh" d="M1905.203 1293.1l112.738-28.653 38.075 152.21-112.738 28.653z"/><path class="ah" d="M1760.373 1348.858l116.875-29.705 29.47 117.808-116.875 29.705z"/><path class="n" d="M1593.975 1391.813l114.806-29.181 28.95 115.722-114.806 29.18z"/><path class="bi" d="M1423.83 1432.288l119.977-30.496 30.255 120.936-119.978 30.495z"/><path class="bk" d="M1883.579 1137.852l96.224-24.399 29.67 118.893-96.224 24.399z"/><path class="bl" d="M1705.782 1173.263l136.526-34.702 34.427 137.616-136.526 34.701z"/></g></g><g class="d"><path class="e" d="M2309.32 3414.29l100.325-25.503 25.293 101.128-100.325 25.503z"/><path class="f" d="M2651.213 3244.833l36.2-9.202 9.128 36.489-36.2 9.202z"/><path class="g" d="M2504.072 3250.169l96.224-24.399 24.205 96.993-96.224 24.398z"/><path class="h" d="M2396.41 3278.606l93.084-23.67 23.482 93.826-93.083 23.67z"/><path class="i" d="M2284.101 3305.204l97.223-24.71 24.514 98-97.223 24.71z"/><path class="j" d="M2826.485 3068.083l63.117-16.069 15.942 63.619-63.117 16.068z"/><path class="k" d="M2702.22 3087.475l84.811-21.557 21.388 85.489-84.812 21.556z"/><path class="l" d="M2595.092 3117.056l81.739-20.81 20.645 82.392-81.739 20.81z"/><path class="m" d="M2470.751 3135.217l105.495-26.826 26.614 106.336-105.495 26.826z"/><path class="n" d="M2377.781 3173.389l77.6-19.756 19.6 78.22-77.6 19.755z"/><path class="o" d="M2257.435 3195.069l94.12-23.924 23.734 94.872-94.12 23.924z"/><path class="p" d="M3875.387 2665.211l95.16-24.165 24.754 99.048-95.16 24.165z"/><path class="q" d="M3800.732 2714.488l41.387-10.494 10.41 41.717-41.387 10.494z"/><path class="r" d="M3705.997 2750.646l17.583-4.47 4.435 17.722-17.582 4.47z"/><path class="s" d="M3593.89 2778.17l20.69-5.236 5.193 20.857-20.691 5.236z"/><path class="t" d="M3486.473 2806.6l17.58-4.481 4.446 17.72-17.58 4.48z"/><path class="u" d="M3361.194 2826.461l41.374-10.507 10.423 41.705-41.374 10.506z"/><path class="v" d="M3251.254 2854.415l41.375-10.503 10.419 41.705-41.375 10.503z"/><path class="w" d="M3154.165 2889.161l21.728-5.509 5.466 21.901-21.728 5.51z"/><path class="x" d="M3000.26 2890.425l93.084-23.67 23.482 93.826-93.083 23.67z"/><path class="y" d="M2885.148 2915.273l100.325-25.505 25.295 101.128-100.325 25.505z"/><path class="z" d="M2775.28 2942.193l101.397-25.712 25.503 102.207-101.396 25.712z"/><path class="aa" d="M2665.643 2971.307l99.328-25.186 24.985 100.12-99.328 25.186z"/><path class="ab" d="M2554.358 2998.444l102.391-26.037 25.832 103.208-102.392 26.038z"/><path class="ac" d="M2463.833 3038.151l71.366-18.14 18 71.935-71.366 18.14z"/><path class="o" d="M2341.075 3057.279l93.087-23.66 23.47 93.83-93.086 23.66z"/><path class="ad" d="M2225.808 3082.13l101.357-25.776 25.568 102.167-101.357 25.776z"/><path class="ae" d="M3848.905 2555.384l94.118-23.934 24.004 95.912-94.117 23.934z"/><path class="af" d="M3741.88 2585.179l91.05-23.087 22.903 91.777-91.05 23.086z"/><path class="ag" d="M3649.973 2624.056l62.056-15.78 15.656 62.55-62.057 15.78z"/><path class="ah" d="M3529.665 2644.788l79.669-20.2 20.04 80.305-79.668 20.2z"/><path class="ai" d="M3424.952 2675.614l71.392-18.175 18.036 71.96-71.392 18.176z"/><path class="aj" d="M3312.313 2702.153l75.5-19.19 19.042 76.1-75.5 19.19z"/><path class="ak" d="M3192.493 2724.737l91.015-23.145 22.96 91.742-91.014 23.145z"/><path class="al" d="M3086.253 2754.062l85.844-21.83 21.657 86.531-85.844 21.83z"/><path class="am" d="M2977.835 2782.873l84.842-21.512 21.342 85.52-84.842 21.512z"/><path class="an" d="M2878.416 2817.089l67.229-17.087 16.952 67.766-67.23 17.087z"/><path class="ao" d="M2769.685 2845.877l65.164-16.547 16.415 65.68-65.164 16.547zm-109.665 27.87l64.126-16.298 16.169 64.633-64.125 16.303z"/><path class="ap" d="M2536.997 2893.902l85.844-21.83 21.657 86.531-85.844 21.83z"/><path class="aa" d="M2420.329 2916.943l97.223-24.712 24.516 97.999-97.223 24.712z"/><path class="aq" d="M2309.359 2944.22l99.328-25.186 24.985 100.12-99.328 25.186z"/><path class="ar" d="M2197.247 2971.67l102.395-26.025 25.818 103.212-102.395 26.025z"/><path class="as" d="M3832.995 2451.672l77.6-19.756 19.6 78.22-77.6 19.755z"/><path class="an" d="M3728.232 2482.812l68.262-17.358 17.22 68.806-68.262 17.358z"/><path class="j" d="M3622.163 2513.2l62.058-15.774 15.649 62.553-62.058 15.773z"/><path class="an" d="M3509.635 2538.55l67.253-17.122 16.987 67.79-67.253 17.122z"/><path class="at" d="M3389.75 2561.413l82.773-20.987 20.822 83.434-82.774 20.987z"/><path class="au" d="M3279.672 2588.155l83.808-21.25 21.082 84.477-83.808 21.25z"/><path class="av" d="M3170.864 2616.934l80.675-20.505 20.344 81.318-80.675 20.505z"/><path class="aw" d="M3055.989 2641.776l90.016-22.917 22.736 90.738-90.015 22.917z"/><path class="ax" d="M2982.627 2692.746l31.03-7.88 7.818 31.279-31.03 7.879z"/><path class="ay" d="M2875.263 2721.199l28.967-7.336 7.278 29.198-28.967 7.336z"/><path class="az" d="M2737.928 2732.741l71.366-18.14 18 71.935-71.366 18.14z"/><path class="ba" d="M2654.108 2776.156l29.993-7.628 7.568 30.234-29.994 7.627z"/><path class="bb" d="M2546.667 2804.802l26.902-6.82 6.767 27.115-26.902 6.82z"/><path class="bc" d="M2448.69 2840.933l7.238-1.848 2.096 8.34-7.237 1.849z"/><path class="bd" d="M2325.894 2860.916l27.928-7.091 7.036 28.15-27.928 7.091z"/><path class="be" d="M2214.638 2888.311l30.005-7.64 7.58 30.246-30.006 7.64z"/><path class="bf" d="M3796.355 2335.584l92.052-23.396 23.212 92.787-92.053 23.396z"/><path class="bg" d="M3688.822 2365.107l87.912-22.356 22.178 88.614-87.912 22.356z"/><path class="bh" d="M3571.105 2388.481l99.292-25.238 25.038 100.084-99.292 25.238z"/><path class="ah" d="M3475.575 2425.081l76.535-19.462 19.309 77.146-76.536 19.462z"/><path class="n" d="M3366.791 2452.566l75.497-19.198 19.05 76.1-75.497 19.197z"/><path class="bi" d="M3254.335 2479.046l79.639-20.25 20.091 80.273-79.639 20.251z"/><path class="bj" d="M3760.286 2219.376l98.255-24.986 26.357 105.294-98.255 24.985z"/><path class="af" d="M3658.667 2252.755l92.086-23.35 23.164 92.82-92.086 23.35z"/><path class="bk" d="M3556.656 2285.495l77.572-19.715 19.56 78.19-77.572 19.716z"/><path class="bl" d="M3440.087 2309.461l89.98-22.882 22.701 90.703-89.98 22.882z"/><path class="bm" d="M3733.88 2109.619l97.221-24.723 25.831 103.21-97.221 24.722z"/><g class="bn"><path class="f" d="M3751.156 2065.665l53.787-13.653 13.555 54.214-53.787 13.653z"/><path class="j" d="M3433.09 2303.086l96.189-24.448 24.255 96.958-96.19 24.447z"/><path class="k" d="M3579.426 2247.383l129.286-32.876 32.615 130.315-129.285 32.876z"/><path class="l" d="M3749.401 2207.849l105.498-26.815 31.297 125.104-105.497 26.816z"/><path class="r" d="M2184.188 2837.139l25.866-6.585 6.534 26.073-25.866 6.585z"/><path class="s" d="M2348.989 2792.395l31.023-7.909 7.846 31.271-31.023 7.909z"/><path class="t" d="M2517.987 2752.22l25.858-6.566 6.515 26.065-25.858 6.566z"/><path class="u" d="M2662.314 2696.082l62.08-15.74 15.615 62.574-62.08 15.741z"/><path class="v" d="M2828.572 2653.245l63.117-16.004 15.876 63.619-63.117 16.003z"/><path class="w" d="M3014.281 2622.035l33.11-8.395 8.329 33.373-33.11 8.395z"/><path class="x" d="M3113.357 2539.44l140.66-35.769 35.484 141.782-140.66 35.77z"/><path class="y" d="M3273.365 2492.762l152.04-38.646 38.334 153.255-152.04 38.646z"/><path class="z" d="M3439.294 2449.935l154.11-39.17 38.861 155.338-154.11 39.17z"/><path class="aa" d="M3607.884 2407.566l151.007-38.383 38.077 152.21-151.006 38.383z"/><path class="ab" d="M3772.325 2364.025l121.012-30.759 39.125 156.38-121.013 30.76z"/><path class="ag" d="M2193.503 2976.578l83.775-21.304 23.482 93.827-83.774 21.303z"/><path class="ah" d="M2333.713 2927.117l121.056-30.695 30.45 122.022-121.055 30.695z"/><path class="ai" d="M2509.184 2889.56l107.566-27.34 27.123 108.426-107.566 27.34z"/><path class="aj" d="M2671.237 2844.402l114.806-29.181 28.95 115.722-114.806 29.18z"/><path class="ak" d="M2823.586 2792.886l137.56-34.962 34.687 138.659-137.56 34.962z"/><path class="al" d="M2996.017 2753.886l130.32-33.124 32.863 131.36-130.32 33.124z"/><path class="am" d="M3163.581 2711.755l128.252-32.599 32.341 129.276-128.252 32.598z"/><path class="an" d="M3347.001 2679.069l102.395-26.025 25.818 103.212-102.395 26.025z"/><path class="ao" d="M3516.115 2638.822l99.292-25.236 25.036 100.084-99.292 25.236zm167.205-43.065l98.294-24.923 24.724 99.076-98.294 24.923z"/><path class="ap" d="M3829.669 2541.733l108.6-27.604 32.864 131.364-108.6 27.604z"/><path class="j" d="M2236.167 3144.42l83.778-21.292 23.732 94.872-83.778 21.292z"/><path class="an" d="M2387.724 3101.639l102.394-26.027 25.82 103.212-102.394 26.027z"/><path class="at" d="M2540.343 3051.178l125.15-31.808 31.556 126.148-125.15 31.808z"/><path class="au" d="M2705.325 3007.495l127.219-32.334 32.077 128.233-127.218 32.334z"/><path class="av" d="M2875.107 2967.057l123.08-31.284 31.038 124.063-123.081 31.284z"/><path class="aw" d="M3033.819 2919.6l136.576-34.63 34.354 137.666-136.576 34.63z"/><path class="ax" d="M3256.95 2910.865l47.576-12.098 12.005 47.955-47.576 12.098z"/><path class="ay" d="M3425.74 2869.458l43.44-11.042 10.954 43.787-43.44 11.042z"/><path class="az" d="M3552.062 2802.668l108.64-27.547 27.327 109.507-108.64 27.547z"/><path class="ba" d="M3758.611 2783.81l45.51-11.567 11.475 45.876-45.51 11.567z"/><path class="bb" d="M3927.421 2743.654l40.336-10.257 10.176 40.658-40.336 10.257z"/><path class="bh" d="M2271.017 3284.243l112.734-28.667 38.094 152.205-112.734 28.668z"/><path class="ah" d="M2420.636 3265.137l116.918-29.645 29.41 117.85-116.918 29.645z"/><path class="n" d="M2589.173 3222.888l114.848-29.12 28.889 115.763-114.848 29.121z"/><path class="bi" d="M2751.821 3178.361l119.974-30.508 30.267 120.932-119.974 30.508z"/><path class="bk" d="M2317.459 3468.712l96.186-24.46 29.745 118.847-96.186 24.46z"/><path class="bl" d="M2450.288 3425.873l136.526-34.702 34.427 137.616-136.526 34.701z"/></g></g></g></g><g transform="translate(2318 68)" opacity=".51" clip-path="url(#d)"><g class="c"><g class="d"><path class="e" d="M1891.14 249.117l100.325-25.505 25.295 101.128-100.325 25.505z"/><path class="f" d="M1629.51 467.817l36.199-9.205 9.132 36.488-36.199 9.206z"/><path class="g" d="M1701.909 417.267l96.189-24.448 24.255 96.958-96.19 24.447z"/><path class="h" d="M1813.059 390.071l93.087-23.66 23.47 93.83-93.086 23.66z"/><path class="i" d="M1920.333 360.591l97.223-24.71 24.514 98-97.223 24.71z"/><path class="j" d="M1420.493 623.368l63.098-16.023 15.895 63.6-63.098 16.022z"/><path class="k" d="M1516.325 587.845l84.809-21.567 21.395 85.487-84.809 21.566z"/><path class="l" d="M1628.869 561.425l81.71-20.767 20.603 82.362-81.71 20.767z"/><path class="m" d="M1723.073 524.086l105.495-26.826 26.614 106.336-105.495 26.826z"/><path class="n" d="M1850.021 507.28l77.57-19.725 19.569 78.189-77.57 19.724z"/><path class="o" d="M1949.48 473.208l94.12-23.924 23.734 94.872-94.12 23.924z"/><path class="p" d="M330.868 1000.109l95.19-24.136 24.724 99.078-95.19 24.136z"/><path class="q" d="M473.761 994.395l41.37-10.52 10.437 41.7-41.37 10.52z"/><path class="r" d="M597.859 974.979l17.583-4.469 4.434 17.723-17.583 4.469z"/><path class="s" d="M706.418 946.288l20.687-5.253 5.208 20.853-20.686 5.252z"/><path class="t" d="M817.595 919.108l17.59-4.46 4.424 17.73-17.59 4.46z"/><path class="u" d="M913.17 882.539l41.37-10.52 10.437 41.7-41.37 10.52z"/><path class="v" d="M1021.979 854.813l41.371-10.516 10.433 41.702-41.372 10.516z"/><path class="w" d="M1144.531 833.633l21.72-5.523 5.48 21.893-21.72 5.523z"/><path class="x" d="M1210.426 779.123l93.12-23.612 23.423 93.863-93.12 23.612z"/><path class="y" d="M1315.358 749.091l100.362-25.452 25.241 101.165-100.362 25.452z"/><path class="z" d="M1423.929 720.3l101.397-25.712 25.503 102.207-101.396 25.712z"/><path class="aa" d="M1535.098 693.176l99.292-25.236 25.036 100.084-99.292 25.236z"/><path class="ab" d="M1643.568 664.323l102.391-26.037 25.832 103.208-102.392 26.038z"/><path class="ac" d="M1772.799 648.153l71.366-18.14 18 71.935-71.366 18.14z"/><path class="o" d="M1868.445 611.501l93.084-23.67 23.482 93.826-93.083 23.67z"/><path class="ad" d="M1973.201 580.574l101.397-25.712 25.503 102.207-101.396 25.712z"/><path class="ae" d="M358.82 1111.662l94.12-23.924 23.995 95.915-94.12 23.923z"/><path class="af" d="M470.185 1085.403l91.05-23.087 22.903 91.777-91.05 23.086z"/><path class="ag" d="M598.433 1069.375l62.08-15.805 15.68 62.575-62.08 15.805z"/><path class="ah" d="M696.629 1034.416l79.669-20.2 20.04 80.305-79.668 20.2z"/><path class="ai" d="M811.638 1009.539l71.364-18.147 18.008 71.932-71.364 18.147z"/><path class="aj" d="M918.957 980.02l75.527-19.15 19.002 76.128-75.527 19.15z"/><path class="ak" d="M1018.689 946.893l91.05-23.087 22.903 91.777-91.05 23.086z"/><path class="al" d="M1132.127 920.138l85.847-21.82 21.648 86.533-85.846 21.82z"/><path class="am" d="M1242.237 893.215l84.811-21.557 21.388 85.489-84.812 21.556z"/><path class="an" d="M1363.606 871.232l67.229-17.087 16.952 67.766-67.23 17.087z"/><path class="ao" d="M1474.704 844.103l65.184-16.595 16.463 65.7-65.184 16.595zm110.115-26.902l64.15-16.266 16.135 64.657-64.149 16.27z"/><path class="ap" d="M1681.661 781.394l85.844-21.83 21.657 86.531-85.844 21.83z"/><path class="aa" d="M1783.758 748.636l97.221-24.723 24.526 97.997-97.22 24.723z"/><path class="aq" d="M1892.264 719.967l99.292-25.238 25.038 100.084-99.292 25.238z"/><path class="ar" d="M1999.955 691.494l102.395-26.025 25.818 103.212-102.395 26.025z"/><path class="as" d="M396.101 1229.747l77.572-19.717 19.56 78.19-77.57 19.717z"/><path class="an" d="M512.162 1204.72l68.289-17.315 17.177 68.838-68.288 17.315z"/><path class="j" d="M626.237 1180.126l62.058-15.773 15.648 62.553-62.058 15.773z"/><path class="an" d="M732.118 1149.827l67.253-17.122 16.987 67.79-67.253 17.122z"/><path class="at" d="M832.911 1116.325l82.743-21.031 20.866 83.404-82.743 21.03z"/><path class="au" d="M941.53 1087.627l83.808-21.25 21.082 84.477-83.808 21.25z"/><path class="av" d="M1052.874 1061.432l80.675-20.505 20.344 81.318-80.675 20.505z"/><path class="aw" d="M1157.381 1029.372l89.983-22.87 22.69 90.705-89.983 22.87z"/><path class="ax" d="M1303.65 1024.284l31.027-7.89 7.828 31.275-31.028 7.89z"/><path class="ay" d="M1414.846 997.077l28.97-7.376 7.318 29.202-28.971 7.376z"/><path class="az" d="M1498.475 952.447l71.366-18.14 18 71.935-71.366 18.14z"/><path class="ba" d="M1634.515 941.155l29.997-7.614 7.554 30.236-29.997 7.614z"/><path class="bb" d="M1745.759 913.913l26.902-6.82 6.767 27.115-26.902 6.82z"/><path class="bc" d="M1867.182 892.968l7.24-1.838 1.824 7.299-7.24 1.838z"/><path class="bd" d="M1965.502 858.026l27.926-7.097 7.042 28.148-27.926 7.098z"/><path class="be" d="M2072.861 829.475l29.998-7.61 7.55 30.236-29.997 7.61z"/><path class="bf" d="M414.825 1335.12l92.052-23.396 23.212 92.787-92.053 23.396z"/><path class="bg" d="M527.249 1308.666l87.947-22.39 22.213 88.648-87.947 22.39z"/><path class="bh" d="M629.304 1275.963l99.292-25.238 25.038 100.084-99.292 25.238z"/><path class="ah" d="M753.476 1256.631l76.565-19.492 19.34 77.175-76.566 19.493z"/><path class="n" d="M864.579 1229.398l75.497-19.198 19.05 76.1-75.497 19.197z"/><path class="bi" d="M971.793 1199.918l79.639-20.25 20.091 80.273-79.639 20.251z"/><path class="bj" d="M441.049 1439.2l98.255-24.986 26.357 105.294-98.255 24.985z"/><path class="af" d="M552.435 1417.805l92.058-23.376 23.191 92.79-92.057 23.377z"/><path class="bk" d="M671.356 1395.332l77.6-19.676 19.52 78.22-77.6 19.675z"/><path class="bl" d="M773.454 1362.716l89.983-22.87 22.69 90.705-89.983 22.87z"/><path class="bm" d="M469.015 1550.838l97.221-24.723 25.831 103.21-97.221 24.722z"/><g class="bn"><path class="f" d="M506.464 1632.922l54.837-13.904 13.794 55.275-54.837 13.904z"/><path class="j" d="M771.617 1363.722l96.189-24.448 24.255 96.958-96.19 24.447z"/><path class="k" d="M584.55 1394.134l129.337-32.794 32.533 130.365-129.337 32.794z"/><path class="l" d="M439.552 1432.862l105.498-26.815 31.297 125.104-105.497 26.816z"/><path class="r" d="M2108.382 882.608l25.866-6.586 6.533 26.074-25.866 6.585z"/><path class="s" d="M1938.311 923.197l31.028-7.887 7.824 31.277-31.029 7.886z"/><path class="t" d="M1774.529 967.705l25.866-6.585 6.534 26.073-25.866 6.585z"/><path class="u" d="M1584.952 996.43l62.056-15.78 15.656 62.55-62.057 15.78z"/><path class="v" d="M1418.441 1038.41l63.117-16.004 15.876 63.619-63.117 16.003z"/><path class="w" d="M1269.264 1092.398l33.1-8.406 8.337 33.363-33.1 8.406z"/><path class="x" d="M1035.653 1094.694l140.66-35.769 35.484 141.782-140.66 35.77z"/><path class="y" d="M861.581 1132.897l152.04-38.649 38.336 153.254-152.04 38.65z"/><path class="z" d="M693.745 1173.971l154.11-39.17 38.861 155.338-154.11 39.17z"/><path class="aa" d="M528.789 1217.618l151.007-38.383 38.077 152.21-151.006 38.383z"/><path class="ab" d="M393.304 1249.381l121.012-30.759 39.125 156.38-121.013 30.76z"/><path class="ag" d="M2023.906 688.916l83.775-21.304 23.482 93.827-83.774 21.303z"/><path class="ah" d="M1839.809 721.048l121.013-30.757 30.512 121.978-121.013 30.757z"/><path class="ai" d="M1681.314 768.57l107.566-27.34 27.123 108.426-107.566 27.34z"/><path class="aj" d="M1509.804 808.437l114.848-29.12 28.889 115.763-114.848 29.121z"/><path class="ak" d="M1329.213 842.663l137.56-34.964 34.689 138.658-137.56 34.964z"/><path class="al" d="M1166.849 887.856l130.32-33.124 32.863 131.36-130.32 33.124z"/><path class="am" d="M1001.656 930.467l128.249-32.612 32.354 129.272-128.248 32.612z"/><path class="an" d="M850.974 982.773l102.395-26.025 25.818 103.212-102.395 26.025z"/><path class="ao" d="M685.971 1026.373l99.29-25.249 25.047 100.082-99.289 25.248zm-166.292 42.947l98.294-24.923 24.724 99.076-98.294 24.923z"/><path class="ap" d="M354.616 1093.666l108.64-27.547 32.795 131.412-108.64 27.546z"/><path class="j" d="M1981.473 521.336l83.778-21.292 23.732 94.872-83.778 21.292z"/><path class="an" d="M1809.801 560.237l102.394-26.027 25.82 103.212-102.394 26.027z"/><path class="at" d="M1629.332 594.481l125.145-31.823 31.572 126.144-125.145 31.823z"/><path class="au" d="M1460.577 635.794l127.219-32.334 32.077 128.233-127.218 32.334z"/><path class="av" d="M1296.625 679.224l123.081-31.282 31.035 124.063-123.081 31.282z"/><path class="aw" d="M1121.511 717.731l136.576-34.63 34.354 137.666-136.576 34.63z"/><path class="ax" d="M1010.676 793.078l47.595-12.068 11.974 47.974-47.594 12.068z"/><path class="ay" d="M845.687 836.724l43.456-11.064 10.975 43.803-43.455 11.064z"/><path class="az" d="M637.942 854.638l108.6-27.604 27.385 109.467-108.6 27.604z"/><path class="ba" d="M510.586 920.954l45.51-11.567 11.475 45.876-45.51 11.567z"/><path class="bb" d="M346.899 965.359l40.34-10.244 10.162 40.661-40.34 10.244z"/><path class="bh" d="M1904.203 331.1l112.738-28.653 38.075 152.21-112.738 28.653z"/><path class="ah" d="M1759.373 386.858l116.875-29.705 29.47 117.808-116.875 29.705z"/><path class="n" d="M1592.975 429.813l114.806-29.181 28.95 115.722-114.806 29.18z"/><path class="bi" d="M1422.83 470.288l119.977-30.496 30.255 120.936-119.978 30.495z"/><path class="bk" d="M1882.579 175.852l96.224-24.399 29.67 118.893-96.224 24.399z"/><path class="bl" d="M1704.782 211.263l136.526-34.702 34.427 137.616-136.526 34.701z"/></g></g><g class="d"><path class="e" d="M2308.32 2452.29l100.325-25.503 25.293 101.128-100.325 25.503z"/><path class="f" d="M2650.213 2282.833l36.2-9.202 9.128 36.489-36.2 9.202z"/><path class="g" d="M2503.072 2288.169l96.224-24.399 24.205 96.993-96.224 24.398z"/><path class="h" d="M2395.41 2316.606l93.084-23.67 23.482 93.826-93.083 23.67z"/><path class="i" d="M2283.101 2343.204l97.223-24.71 24.514 98-97.223 24.71z"/><path class="j" d="M2825.485 2106.083l63.117-16.069 15.942 63.619-63.117 16.068z"/><path class="k" d="M2701.22 2125.475l84.811-21.557 21.388 85.489-84.812 21.556z"/><path class="l" d="M2594.092 2155.056l81.739-20.81 20.645 82.392-81.739 20.81z"/><path class="m" d="M2469.751 2173.217l105.495-26.826 26.614 106.336-105.495 26.826z"/><path class="n" d="M2376.781 2211.389l77.6-19.756 19.6 78.22-77.6 19.755z"/><path class="o" d="M2256.435 2233.069l94.12-23.924 23.734 94.872-94.12 23.924z"/><path class="p" d="M3874.387 1703.211l95.16-24.165 24.754 99.048-95.16 24.165z"/><path class="q" d="M3799.732 1752.488l41.387-10.494 10.41 41.717-41.387 10.494z"/><path class="r" d="M3704.997 1788.646l17.583-4.47 4.435 17.722-17.582 4.47z"/><path class="s" d="M3592.89 1816.17l20.69-5.236 5.193 20.857-20.691 5.236z"/><path class="t" d="M3485.473 1844.6l17.58-4.481 4.446 17.72-17.58 4.48z"/><path class="u" d="M3360.194 1864.461l41.374-10.507 10.423 41.705-41.374 10.506z"/><path class="v" d="M3250.254 1892.415l41.375-10.503 10.419 41.705-41.375 10.503z"/><path class="w" d="M3153.165 1927.161l21.728-5.509 5.466 21.901-21.728 5.51z"/><path class="x" d="M2999.26 1928.425l93.084-23.67 23.482 93.826-93.083 23.67z"/><path class="y" d="M2884.148 1953.273l100.325-25.505 25.295 101.128-100.325 25.505z"/><path class="z" d="M2774.28 1980.193l101.397-25.712 25.503 102.207-101.396 25.712z"/><path class="aa" d="M2664.643 2009.307l99.328-25.186 24.985 100.12-99.328 25.186z"/><path class="ab" d="M2553.358 2036.444l102.391-26.037 25.832 103.208-102.392 26.038z"/><path class="ac" d="M2462.833 2076.151l71.366-18.14 18 71.935-71.366 18.14z"/><path class="o" d="M2340.075 2095.279l93.087-23.66 23.47 93.83-93.086 23.66z"/><path class="ad" d="M2224.808 2120.13l101.357-25.776 25.568 102.167-101.357 25.776z"/><path class="ae" d="M3847.905 1593.384l94.118-23.934 24.004 95.912-94.117 23.934z"/><path class="af" d="M3740.88 1623.179l91.05-23.087 22.903 91.777-91.05 23.086z"/><path class="ag" d="M3648.973 1662.056l62.056-15.78 15.656 62.55-62.057 15.78z"/><path class="ah" d="M3528.665 1682.788l79.669-20.2 20.04 80.305-79.668 20.2z"/><path class="ai" d="M3423.952 1713.614l71.392-18.175 18.036 71.96-71.392 18.176z"/><path class="aj" d="M3311.313 1740.153l75.5-19.19 19.042 76.1-75.5 19.19z"/><path class="ak" d="M3191.493 1762.737l91.015-23.145 22.96 91.742-91.014 23.145z"/><path class="al" d="M3085.253 1792.062l85.844-21.83 21.657 86.531-85.844 21.83z"/><path class="am" d="M2976.835 1820.873l84.842-21.512 21.342 85.52-84.842 21.512z"/><path class="an" d="M2877.416 1855.089l67.229-17.087 16.952 67.766-67.23 17.087z"/><path class="ao" d="M2768.685 1883.877l65.164-16.547 16.415 65.68-65.164 16.547zm-109.665 27.87l64.126-16.298 16.169 64.633-64.125 16.303z"/><path class="ap" d="M2535.997 1931.902l85.844-21.83 21.657 86.531-85.844 21.83z"/><path class="aa" d="M2419.329 1954.943l97.223-24.712 24.516 97.999-97.223 24.712z"/><path class="aq" d="M2308.359 1982.22l99.328-25.186 24.985 100.12-99.328 25.186z"/><path class="ar" d="M2196.247 2009.67l102.395-26.025 25.818 103.212-102.395 26.025z"/><path class="as" d="M3831.995 1489.672l77.6-19.756 19.6 78.22-77.6 19.755z"/><path class="an" d="M3727.232 1520.812l68.262-17.358 17.22 68.806-68.262 17.358z"/><path class="j" d="M3621.163 1551.2l62.058-15.774 15.649 62.553-62.058 15.773z"/><path class="an" d="M3508.635 1576.55l67.253-17.122 16.987 67.79-67.253 17.122z"/><path class="at" d="M3388.75 1599.413l82.773-20.987 20.822 83.434-82.774 20.987z"/><path class="au" d="M3278.672 1626.155l83.808-21.25 21.082 84.477-83.808 21.25z"/><path class="av" d="M3169.864 1654.934l80.675-20.505 20.344 81.318-80.675 20.505z"/><path class="aw" d="M3054.989 1679.776l90.016-22.918 22.736 90.739-90.015 22.917z"/><path class="ax" d="M2981.627 1730.746l31.03-7.88 7.818 31.279-31.03 7.879z"/><path class="ay" d="M2874.263 1759.199l28.967-7.336 7.278 29.198-28.967 7.336z"/><path class="az" d="M2736.928 1770.741l71.366-18.14 18 71.935-71.366 18.14z"/><path class="ba" d="M2653.108 1814.156l29.993-7.628 7.568 30.234-29.994 7.627z"/><path class="bb" d="M2545.667 1842.802l26.902-6.82 6.767 27.115-26.902 6.82z"/><path class="bc" d="M2447.69 1878.933l7.238-1.848 2.096 8.34-7.237 1.849z"/><path class="bd" d="M2324.894 1898.916l27.928-7.091 7.036 28.15-27.928 7.091z"/><path class="be" d="M2213.638 1926.311l30.005-7.64 7.58 30.246-30.006 7.64z"/><path class="bf" d="M3795.355 1373.584l92.052-23.396 23.212 92.787-92.053 23.396z"/><path class="bg" d="M3687.822 1403.107l87.912-22.356 22.178 88.614-87.912 22.356z"/><path class="bh" d="M3570.105 1426.481l99.292-25.238 25.038 100.084-99.292 25.238z"/><path class="ah" d="M3474.575 1463.081l76.535-19.462 19.309 77.146-76.536 19.462z"/><path class="n" d="M3365.791 1490.566l75.497-19.198 19.05 76.1-75.497 19.197z"/><path class="bi" d="M3253.335 1517.046l79.639-20.25 20.091 80.273-79.639 20.251z"/><path class="bj" d="M3759.286 1257.376l98.255-24.986 26.357 105.294-98.255 24.985z"/><path class="af" d="M3657.667 1290.755l92.086-23.35 23.164 92.82-92.086 23.35z"/><path class="bk" d="M3555.656 1323.495l77.572-19.715 19.56 78.19-77.572 19.716z"/><path class="bl" d="M3439.087 1347.461l89.98-22.882 22.701 90.703-89.98 22.882z"/><path class="bm" d="M3732.88 1147.619l97.221-24.723 25.831 103.21-97.221 24.722z"/><g class="bn"><path class="f" d="M3750.156 1103.665l53.787-13.653 13.555 54.214-53.787 13.653z"/><path class="j" d="M3432.09 1341.086l96.189-24.448 24.255 96.958-96.19 24.447z"/><path class="k" d="M3578.426 1285.383l129.286-32.876 32.615 130.315-129.285 32.876z"/><path class="l" d="M3748.401 1245.849l105.498-26.815 31.297 125.104-105.497 26.816z"/><path class="r" d="M2183.188 1875.139l25.866-6.585 6.534 26.073-25.866 6.585z"/><path class="s" d="M2347.989 1830.395l31.023-7.909 7.846 31.271-31.023 7.909z"/><path class="t" d="M2516.987 1790.22l25.858-6.566 6.515 26.065-25.858 6.566z"/><path class="u" d="M2661.314 1734.082l62.08-15.74 15.615 62.574-62.08 15.741z"/><path class="v" d="M2827.572 1691.245l63.117-16.004 15.876 63.619-63.117 16.003z"/><path class="w" d="M3013.281 1660.035l33.11-8.395 8.329 33.373-33.11 8.395z"/><path class="x" d="M3112.357 1577.44l140.66-35.769 35.484 141.782-140.66 35.77z"/><path class="y" d="M3272.365 1530.762l152.04-38.646 38.334 153.255-152.04 38.646z"/><path class="z" d="M3438.294 1487.935l154.11-39.17 38.861 155.338-154.11 39.17z"/><path class="aa" d="M3606.884 1445.566l151.007-38.383 38.077 152.21-151.006 38.383z"/><path class="ab" d="M3771.325 1402.025l121.012-30.759 39.125 156.38-121.013 30.76z"/><path class="ag" d="M2192.503 2014.578l83.775-21.304 23.482 93.827-83.774 21.303z"/><path class="ah" d="M2332.713 1965.117l121.056-30.695 30.45 122.022-121.055 30.695z"/><path class="ai" d="M2508.184 1927.56l107.566-27.34 27.123 108.426-107.566 27.34z"/><path class="aj" d="M2670.237 1882.402l114.806-29.181 28.95 115.722-114.806 29.18z"/><path class="ak" d="M2822.586 1830.886l137.56-34.962 34.687 138.659-137.56 34.962z"/><path class="al" d="M2995.017 1791.886l130.32-33.124 32.863 131.36-130.32 33.124z"/><path class="am" d="M3162.581 1749.755l128.252-32.599 32.341 129.276-128.252 32.598z"/><path class="an" d="M3346.001 1717.069l102.395-26.025 25.818 103.212-102.395 26.025z"/><path class="ao" d="M3515.115 1676.822l99.292-25.236 25.036 100.084-99.292 25.236zm167.205-43.065l98.294-24.923 24.724 99.076-98.294 24.923z"/><path class="ap" d="M3828.669 1579.733l108.6-27.604 32.864 131.364-108.6 27.604z"/><path class="j" d="M2235.167 2182.42l83.778-21.292 23.732 94.872-83.778 21.292z"/><path class="an" d="M2386.724 2139.639l102.394-26.027 25.82 103.212-102.394 26.027z"/><path class="at" d="M2539.343 2089.178l125.15-31.808 31.556 126.148-125.15 31.808z"/><path class="au" d="M2704.325 2045.495l127.219-32.334 32.077 128.233-127.218 32.334z"/><path class="av" d="M2874.107 2005.057l123.08-31.284 31.038 124.063-123.081 31.284z"/><path class="aw" d="M3032.819 1957.6l136.576-34.63 34.354 137.666-136.576 34.63z"/><path class="ax" d="M3255.95 1948.865l47.576-12.098 12.005 47.955-47.576 12.098z"/><path class="ay" d="M3424.74 1907.458l43.44-11.042 10.954 43.787-43.44 11.042z"/><path class="az" d="M3551.062 1840.668l108.64-27.547 27.327 109.507-108.64 27.547z"/><path class="ba" d="M3757.611 1821.81l45.51-11.567 11.475 45.876-45.51 11.567z"/><path class="bb" d="M3926.421 1781.654l40.336-10.257 10.176 40.658-40.336 10.257z"/><path class="bh" d="M2270.017 2322.243l112.734-28.667 38.094 152.205-112.734 28.668z"/><path class="ah" d="M2419.636 2303.137l116.918-29.645 29.41 117.85-116.918 29.645z"/><path class="n" d="M2588.173 2260.888l114.848-29.12 28.889 115.763-114.848 29.121z"/><path class="bi" d="M2750.821 2216.361l119.974-30.508 30.267 120.932-119.974 30.508z"/><path class="bk" d="M2316.459 2506.712l96.186-24.46 29.745 118.847-96.186 24.46z"/><path class="bl" d="M2449.288 2463.873l136.526-34.702 34.427 137.616-136.526 34.701z"/></g></g></g></g></svg>