<svg xmlns="http://www.w3.org/2000/svg" viewBox="3566 768 106.758 109"><defs><style>.b{fill:#020403;opacity:.35}</style></defs><path d="M3659.947 866.545c-2.267.5-18.816-7.984-21.262-7.984-15.659 0-28.336-10.524-28.336-23.5s12.692-23.5 28.336-23.5 28.336 10.524 28.336 23.5c0 7.417-4.151 14.039-10.634 18.344-.706.467-.7 1.372-.3 2.486z" fill="#142a3b"/><path class="b" d="M3638.689 811.558c-15.659 0-28.336 10.524-28.336 23.5a21.446 21.446 0 0 0 7.84 16.191 4.4 4.4 0 0 1 .88-.129c21.063 0 38.776-11.787 44.145-27.839-4.929-6.995-14.053-11.723-24.529-11.723z"/><path d="M3577.459 856.856c3.659.78 30.4-12.925 34.356-12.925 25.3 0 45.815-17 45.815-37.976S3637.119 768 3611.815 768 3566 785.007 3566 805.98c0 11.991 6.711 22.684 17.181 29.649 1.143.756 1.128 2.217.5 4.027z" fill="#82a5f6"/><path d="M3578.269 806.876a2.7 2.7 0 0 1-2.714-2.689c0-14.516 14.009-26.348 31.234-26.348a2.689 2.689 0 1 1 0 5.374c-14.233 0-25.811 9.4-25.811 20.954a2.7 2.7 0 0 1-2.709 2.709z" fill="#fff"/><path class="b" d="M3644.079 779.021a33.5 33.5 0 0 1 8.123 21.58c0 20.974-20.506 37.98-45.81 37.98-2.774.01-16.748 6.721-26.1 10.45l-2.819 7.8c3.659.78 30.4-12.925 34.356-12.925 25.3 0 45.815-17 45.815-37.976-.013-10.494-5.2-20.034-13.565-26.909z"/><path d="M3606.093 877c1.357 0 2.456-.467 2.456-1.044s-1.1-1.044-2.456-1.044h-7.517c-1.352 0-2.451.467-2.451 1.044s1.1 1.044 2.451 1.044zm-19.537-16.694h2.232a1.044 1.044 0 0 1 0 2.018h-.1a1.044 1.044 0 0 0 0 2.018h4.8a1.044 1.044 0 0 1 0 2.018h-17.566a1.044 1.044 0 0 1 0-2.018h1.332a1.044 1.044 0 0 0 0-2.018h-6.338a1.044 1.044 0 0 1 0-2.018zm-15.665 6.125c.532 0 .964-.318.964-.706s-.433-.7-.964-.7h-2.958c-.532 0-.964.313-.964.7s.433.706.964.706z" fill="#6b8fe3"/><path d="M3653.157 867.922h5.682c1.094 0 1.988.671 1.988 1.491s-.885 1.491-1.988 1.491h-.268c-1.094 0-1.989.671-1.989 1.491s.885 1.491 1.989 1.491h12.2c1.094 0 1.988.671 1.988 1.491s-.89 1.491-1.988 1.491h-44.648c-1.1 0-1.989-.671-1.989-1.491s.885-1.491 1.989-1.491h3.38c1.094 0 1.988-.671 1.988-1.491s-.89-1.491-1.988-1.491h-16.111c-1.094 0-1.989-.671-1.989-1.491s.89-1.491 1.989-1.491h39.77z" fill="#6a569f"/></svg>